<?xml version="1.0" encoding="UTF-8"?>
<!DOCTYPE svg PUBLIC "-//W3C//DTD SVG 1.1//EN" "http://www.w3.org/Graphics/SVG/1.1/DTD/svg11.dtd">
<svg xmlns="http://www.w3.org/2000/svg" version="1.1" width="1280px" height="1280px" style="shape-rendering:geometricPrecision; text-rendering:geometricPrecision; image-rendering:optimizeQuality; fill-rule:evenodd; clip-rule:evenodd" xmlns:xlink="http://www.w3.org/1999/xlink">
<g><path style="opacity:1" fill="#53232f" d="M 880.5,304.5 C 877.294,305.079 874.294,306.079 871.5,307.5C 862.348,310.156 853.015,310.989 843.5,310C 841.413,309.208 839.579,308.041 838,306.5C 832.156,296.313 826.99,285.813 822.5,275C 832.699,264.954 833.033,254.621 823.5,244C 816.084,239.086 809.584,240.252 804,247.5C 802.427,252.784 802.094,258.117 803,263.5C 799.033,249.363 789.866,241.03 775.5,238.5C 774.833,238.5 774.167,238.5 773.5,238.5C 768.015,237.096 762.349,235.929 756.5,235C 751.476,232.475 748.809,228.308 748.5,222.5C 748.622,220.209 749.455,218.209 751,216.5C 753.643,215.024 755.81,213.024 757.5,210.5C 757.058,209.261 756.391,208.261 755.5,207.5C 755.696,198.292 760.363,192.626 769.5,190.5C 773.977,179.687 781.977,175.521 793.5,178C 796.381,179.227 799.047,180.727 801.5,182.5C 811.516,183.203 821.516,184.037 831.5,185C 836.518,186.227 841.185,188.227 845.5,191C 854.198,190.659 862.531,191.992 870.5,195C 876.922,201.569 881.088,209.403 883,218.5C 884.558,244.811 884.892,271.144 884,297.5C 883.328,300.178 882.161,302.511 880.5,304.5 Z"/></g>
<g><path style="opacity:0.133" fill="#6d495b" d="M 755.5,207.5 C 756.391,208.261 757.058,209.261 757.5,210.5C 755.81,213.024 753.643,215.024 751,216.5C 749.455,218.209 748.622,220.209 748.5,222.5C 748.809,228.308 751.476,232.475 756.5,235C 762.349,235.929 768.015,237.096 773.5,238.5C 773.5,239.167 773.5,239.833 773.5,240.5C 767.315,238.84 760.981,237.506 754.5,236.5C 747.941,231.819 745.774,225.486 748,217.5C 750.376,215.158 752.709,212.825 755,210.5C 755.483,209.552 755.649,208.552 755.5,207.5 Z"/></g>
<g><path style="opacity:1" fill="#f3a398" d="M 775.5,238.5 C 789.866,241.03 799.033,249.363 803,263.5C 802.094,258.117 802.427,252.784 804,247.5C 809.584,240.252 816.084,239.086 823.5,244C 833.033,254.621 832.699,264.954 822.5,275C 826.99,285.813 832.156,296.313 838,306.5C 839.579,308.041 841.413,309.208 843.5,310C 853.015,310.989 862.348,310.156 871.5,307.5C 872.848,310.492 874.348,313.492 876,316.5C 876.557,320.594 877.39,324.594 878.5,328.5C 862.914,331.322 847.247,333.822 831.5,336C 828.353,336.881 825.353,338.047 822.5,339.5C 821.719,333.138 820.719,326.805 819.5,320.5C 818.333,320.167 817.167,319.833 816,319.5C 810.61,321.222 805.11,321.722 799.5,321C 798.284,319.26 796.618,318.26 794.5,318C 791.448,309.178 788.614,300.345 786,291.5C 785.167,290.5 784.333,289.5 783.5,288.5C 779.82,287.398 776.32,286.065 773,284.5C 775.401,275.987 777.568,267.32 779.5,258.5C 778.778,255.332 777.611,252.332 776,249.5C 775.501,245.848 775.335,242.182 775.5,238.5 Z"/></g>
<g><path style="opacity:0.382" fill="#444465" d="M 749.5,240.5 C 749.5,241.167 749.5,241.833 749.5,242.5C 607.167,242.5 464.833,242.5 322.5,242.5C 321.501,334.332 321.167,426.332 321.5,518.5C 378.167,518.5 434.833,518.5 491.5,518.5C 487.776,537.509 483.943,556.509 480,575.5C 479.253,578.924 479.42,582.257 480.5,585.5C 479.833,585.5 479.167,585.5 478.5,585.5C 477.463,581.168 477.463,576.668 478.5,572C 482.537,554.939 485.871,537.772 488.5,520.5C 432.5,520.5 376.5,520.5 320.5,520.5C 320.5,427.167 320.5,333.833 320.5,240.5C 463.5,240.5 606.5,240.5 749.5,240.5 Z"/></g>
<g><path style="opacity:0.012" fill="#5c5457" d="M 749.5,240.5 C 752.518,240.335 755.518,240.502 758.5,241C 759,241.5 759.5,242 760,242.5C 760.5,286.499 760.667,330.499 760.5,374.5C 760.167,374.5 759.833,374.5 759.5,374.5C 759.886,330.321 759.219,286.321 757.5,242.5C 754.833,242.5 752.167,242.5 749.5,242.5C 749.5,241.833 749.5,241.167 749.5,240.5 Z"/></g>
<g><path style="opacity:0.976" fill="#2b2b52" d="M 322.5,242.5 C 464.833,242.5 607.167,242.5 749.5,242.5C 752.167,242.5 754.833,242.5 757.5,242.5C 757.5,286.5 757.5,330.5 757.5,374.5C 757.5,378.833 757.5,383.167 757.5,387.5C 756.501,339.67 756.168,291.67 756.5,243.5C 613.666,243.167 470.999,243.5 328.5,244.5C 326.833,244.5 325.167,244.5 323.5,244.5C 323.5,335.167 323.5,425.833 323.5,516.5C 325.167,516.5 326.833,516.5 328.5,516.5C 382.669,516.168 436.669,516.501 490.5,517.5C 434.5,517.5 378.5,517.5 322.5,517.5C 322.5,425.833 322.5,334.167 322.5,242.5 Z"/></g>
<g><path style="opacity:1" fill="#2e2e50" d="M 328.5,244.5 C 328.5,335.167 328.5,425.833 328.5,516.5C 326.833,516.5 325.167,516.5 323.5,516.5C 323.5,425.833 323.5,335.167 323.5,244.5C 325.167,244.5 326.833,244.5 328.5,244.5 Z"/></g>
<g><path style="opacity:1" fill="#3c3e67" d="M 757.5,387.5 C 757.5,388.167 757.5,388.833 757.5,389.5C 752.992,392.253 748.659,395.253 744.5,398.5C 744.5,352.167 744.5,305.833 744.5,259.5C 610.334,258.5 476.001,258.167 341.5,258.5C 341.5,339.833 341.5,421.167 341.5,502.5C 413.5,502.5 485.5,502.5 557.5,502.5C 560.133,520.063 565.966,536.397 575,551.5C 578.371,554.703 581.538,558.036 584.5,561.5C 582.876,567.405 582.376,573.405 583,579.5C 583.671,580.252 584.504,580.586 585.5,580.5C 592.5,580.5 599.5,580.5 606.5,580.5C 607.492,580.328 608.158,580.662 608.5,581.5C 583.795,580.526 559.129,580.526 534.5,581.5C 518.911,580.516 503.244,580.183 487.5,580.5C 490.959,560.085 494.959,539.752 499.5,519.5C 496.813,518.74 494.147,518.073 491.5,517.5C 491.167,517.5 490.833,517.5 490.5,517.5C 436.669,516.501 382.669,516.168 328.5,516.5C 328.5,425.833 328.5,335.167 328.5,244.5C 470.999,243.5 613.666,243.167 756.5,243.5C 756.168,291.67 756.501,339.67 757.5,387.5 Z"/></g>
<g><path style="opacity:1" fill="#733e40" d="M 810.5,248.5 C 811.675,248.281 812.675,248.614 813.5,249.5C 812.319,251.198 812.319,252.865 813.5,254.5C 816.156,252.319 818.823,252.152 821.5,254C 811.503,258.095 811.503,262.928 821.5,268.5C 819.45,269.663 817.45,269.496 815.5,268C 810.474,262.375 808.808,255.875 810.5,248.5 Z"/></g>
<g><path style="opacity:1" fill="#242436" d="M 744.5,259.5 C 610.5,259.5 476.5,259.5 342.5,259.5C 342.5,340.167 342.5,420.833 342.5,501.5C 414.167,501.5 485.833,501.5 557.5,501.5C 557.5,501.833 557.5,502.167 557.5,502.5C 485.5,502.5 413.5,502.5 341.5,502.5C 341.5,421.167 341.5,339.833 341.5,258.5C 476.001,258.167 610.334,258.5 744.5,259.5 Z"/></g>
<g><path style="opacity:1" fill="#191925" d="M 744.5,259.5 C 744.5,305.833 744.5,352.167 744.5,398.5C 741.522,403.469 738.189,408.135 734.5,412.5C 734.5,370.167 734.5,327.833 734.5,285.5C 734.5,279.833 734.5,274.167 734.5,268.5C 691.833,268.5 649.167,268.5 606.5,268.5C 605.833,340.167 605.167,411.833 604.5,483.5C 602.861,482.527 601.527,481.194 600.5,479.5C 600.5,414.833 600.5,350.167 600.5,285.5C 600.5,279.833 600.5,274.167 600.5,268.5C 517.5,268.5 434.5,268.5 351.5,268.5C 351.5,274.167 351.5,279.833 351.5,285.5C 351.5,354.5 351.5,423.5 351.5,492.5C 357.5,492.5 363.5,492.5 369.5,492.5C 370.167,492.5 370.833,492.5 371.5,492.5C 433.5,492.5 495.5,492.5 557.5,492.5C 557.5,495.5 557.5,498.5 557.5,501.5C 485.833,501.5 414.167,501.5 342.5,501.5C 342.5,420.833 342.5,340.167 342.5,259.5C 476.5,259.5 610.5,259.5 744.5,259.5 Z"/></g>
<g><path style="opacity:1" fill="#3c3f67" d="M 600.5,285.5 C 524.167,285.5 447.833,285.5 371.5,285.5C 370.833,285.5 370.167,285.5 369.5,285.5C 363.5,285.5 357.5,285.5 351.5,285.5C 351.5,279.833 351.5,274.167 351.5,268.5C 434.5,268.5 517.5,268.5 600.5,268.5C 600.5,274.167 600.5,279.833 600.5,285.5 Z"/></g>
<g><path style="opacity:1" fill="#3c3f68" d="M 606.5,268.5 C 649.167,268.5 691.833,268.5 734.5,268.5C 734.5,274.167 734.5,279.833 734.5,285.5C 698.5,285.5 662.5,285.5 626.5,285.5C 625.833,285.5 625.167,285.5 624.5,285.5C 618.5,285.5 612.5,285.5 606.5,285.5C 606.5,279.833 606.5,274.167 606.5,268.5 Z"/></g>
<g><path style="opacity:1" fill="#05acbf" d="M 550.5,271.5 C 558.489,270.317 561.156,273.484 558.5,281C 551.243,283.746 548.077,281.246 549,273.5C 549.717,272.956 550.217,272.289 550.5,271.5 Z"/></g>
<g><path style="opacity:1" fill="#04adc0" d="M 566.5,271.5 C 571.406,270.306 574.406,272.139 575.5,277C 572.891,283.242 569.057,284.075 564,279.5C 563.018,276.225 563.851,273.559 566.5,271.5 Z"/></g>
<g><path style="opacity:1" fill="#06abbf" d="M 581.5,271.5 C 587.83,270.666 590.663,273.333 590,279.5C 584.943,284.075 581.109,283.242 578.5,277C 578.895,274.752 579.895,272.918 581.5,271.5 Z"/></g>
<g><path style="opacity:1" fill="#06acbf" d="M 685.5,271.5 C 691.83,270.666 694.663,273.333 694,279.5C 690.952,283.01 687.619,283.343 684,280.5C 681.801,276.978 682.301,273.978 685.5,271.5 Z"/></g>
<g><path style="opacity:1" fill="#06acbf" d="M 700.5,271.5 C 709.444,271.227 711.444,274.727 706.5,282C 697.412,282.426 695.412,278.926 700.5,271.5 Z"/></g>
<g><path style="opacity:1" fill="#08abbe" d="M 717.5,270.5 C 724.888,272.293 726.222,276.127 721.5,282C 714.304,283.143 711.804,280.309 714,273.5C 715.145,272.364 716.312,271.364 717.5,270.5 Z"/></g>
<g><path style="opacity:1" fill="#242938" d="M 606.5,268.5 C 606.5,274.167 606.5,279.833 606.5,285.5C 606.5,351.833 606.5,418.167 606.5,484.5C 605.508,484.672 604.842,484.338 604.5,483.5C 605.167,411.833 605.833,340.167 606.5,268.5 Z"/></g>
<g><path style="opacity:1" fill="#293d5c" d="M 606.5,285.5 C 612.5,285.5 618.5,285.5 624.5,285.5C 624.5,354.5 624.5,423.5 624.5,492.5C 621.5,492.5 618.5,492.5 615.5,492.5C 611.88,490.547 608.88,487.881 606.5,484.5C 606.5,418.167 606.5,351.833 606.5,285.5 Z"/></g>
<g><path style="opacity:1" fill="#283d5c" d="M 626.5,285.5 C 662.5,285.5 698.5,285.5 734.5,285.5C 734.5,327.833 734.5,370.167 734.5,412.5C 721.939,437.609 714.939,464.275 713.5,492.5C 684.5,492.5 655.5,492.5 626.5,492.5C 626.5,423.5 626.5,354.5 626.5,285.5 Z"/></g>
<g><path style="opacity:1" fill="#232332" d="M 351.5,285.5 C 357.5,285.5 363.5,285.5 369.5,285.5C 369.5,354.5 369.5,423.5 369.5,492.5C 363.5,492.5 357.5,492.5 351.5,492.5C 351.5,423.5 351.5,354.5 351.5,285.5 Z"/></g>
<g><path style="opacity:1" fill="#c5c5c9" d="M 369.5,285.5 C 370.167,285.5 370.833,285.5 371.5,285.5C 371.5,354.5 371.5,423.5 371.5,492.5C 370.833,492.5 370.167,492.5 369.5,492.5C 369.5,423.5 369.5,354.5 369.5,285.5 Z"/></g>
<g><path style="opacity:1" fill="#242333" d="M 371.5,285.5 C 447.833,285.5 524.167,285.5 600.5,285.5C 600.5,350.167 600.5,414.833 600.5,479.5C 590.476,471.802 580.476,464.136 570.5,456.5C 568.244,449.982 565.411,443.649 562,437.5C 558,433.5 554,429.5 550,425.5C 541.399,413.284 532.566,401.284 523.5,389.5C 521.305,391.059 520.305,393.226 520.5,396C 520.762,398.547 521.262,401.047 522,403.5C 525.603,409.944 529.436,416.278 533.5,422.5C 532.271,423.281 530.938,423.781 529.5,424C 524.81,429.354 520.143,434.687 515.5,440C 516.382,443.441 516.716,446.941 516.5,450.5C 507.833,450.5 499.167,450.5 490.5,450.5C 490.5,451.5 490.5,452.5 490.5,453.5C 499.167,453.5 507.833,453.5 516.5,453.5C 516.961,456.303 518.295,458.637 520.5,460.5C 510.5,460.5 500.5,460.5 490.5,460.5C 490.5,461.5 490.5,462.5 490.5,463.5C 501.5,463.5 512.5,463.5 523.5,463.5C 534.074,469.78 545.407,474.447 557.5,477.5C 557.5,482.5 557.5,487.5 557.5,492.5C 495.5,492.5 433.5,492.5 371.5,492.5C 371.5,423.5 371.5,354.5 371.5,285.5 Z"/></g>
<g><path style="opacity:1" fill="#d9dce3" d="M 624.5,285.5 C 625.167,285.5 625.833,285.5 626.5,285.5C 626.5,354.5 626.5,423.5 626.5,492.5C 625.833,492.5 625.167,492.5 624.5,492.5C 624.5,423.5 624.5,354.5 624.5,285.5 Z"/></g>
<g><path style="opacity:1" fill="#f4f4f4" d="M 355.5,290.5 C 359.167,290.5 362.833,290.5 366.5,290.5C 366.5,291.5 366.5,292.5 366.5,293.5C 362.833,293.5 359.167,293.5 355.5,293.5C 355.5,292.5 355.5,291.5 355.5,290.5 Z"/></g>
<g><path style="opacity:1" fill="#e24545" d="M 376.5,290.5 C 389.833,290.5 403.167,290.5 416.5,290.5C 416.5,291.5 416.5,292.5 416.5,293.5C 403.167,293.5 389.833,293.5 376.5,293.5C 376.5,292.5 376.5,291.5 376.5,290.5 Z"/></g>
<g><path style="opacity:1" fill="#f7f8f9" d="M 610.5,290.5 C 613.833,290.5 617.167,290.5 620.5,290.5C 620.5,291.5 620.5,292.5 620.5,293.5C 617.167,293.5 613.833,293.5 610.5,293.5C 610.5,292.5 610.5,291.5 610.5,290.5 Z"/></g>
<g><path style="opacity:1" fill="#e44546" d="M 631.5,290.5 C 637.5,290.5 643.5,290.5 649.5,290.5C 649.5,291.5 649.5,292.5 649.5,293.5C 643.5,293.5 637.5,293.5 631.5,293.5C 631.5,292.5 631.5,291.5 631.5,290.5 Z"/></g>
<g><path style="opacity:1" fill="#93c01f" d="M 652.5,290.5 C 654.167,290.5 655.833,290.5 657.5,290.5C 657.5,291.5 657.5,292.5 657.5,293.5C 655.833,293.5 654.167,293.5 652.5,293.5C 652.5,292.5 652.5,291.5 652.5,290.5 Z"/></g>
<g><path style="opacity:0.671" fill="#0e0f39" d="M 322.5,242.5 C 322.5,334.167 322.5,425.833 322.5,517.5C 378.5,517.5 434.5,517.5 490.5,517.5C 490.833,517.5 491.167,517.5 491.5,517.5C 491.5,517.833 491.5,518.167 491.5,518.5C 434.833,518.5 378.167,518.5 321.5,518.5C 321.167,426.332 321.501,334.332 322.5,242.5 Z"/></g>
<g><path style="opacity:1" fill="#90bc20" d="M 421.5,290.5 C 425.167,290.5 428.833,290.5 432.5,290.5C 432.5,291.5 432.5,292.5 432.5,293.5C 428.833,293.5 425.167,293.5 421.5,293.5C 421.5,292.5 421.5,291.5 421.5,290.5 Z"/></g>
<g><path style="opacity:1" fill="#f4f4f4" d="M 355.5,300.5 C 359.167,300.5 362.833,300.5 366.5,300.5C 366.5,301.5 366.5,302.5 366.5,303.5C 362.833,303.5 359.167,303.5 355.5,303.5C 355.5,302.5 355.5,301.5 355.5,300.5 Z"/></g>
<g><path style="opacity:1" fill="#01adbf" d="M 376.5,300.5 C 381.5,300.5 386.5,300.5 391.5,300.5C 391.5,301.5 391.5,302.5 391.5,303.5C 386.5,303.5 381.5,303.5 376.5,303.5C 376.5,302.5 376.5,301.5 376.5,300.5 Z"/></g>
<g><path style="opacity:1" fill="#f7f8f9" d="M 610.5,300.5 C 613.833,300.5 617.167,300.5 620.5,300.5C 620.5,301.5 620.5,302.5 620.5,303.5C 617.167,303.5 613.833,303.5 610.5,303.5C 610.5,302.5 610.5,301.5 610.5,300.5 Z"/></g>
<g><path style="opacity:1" fill="#01aec0" d="M 631.5,300.5 C 633.833,300.5 636.167,300.5 638.5,300.5C 638.5,301.5 638.5,302.5 638.5,303.5C 636.167,303.5 633.833,303.5 631.5,303.5C 631.5,302.5 631.5,301.5 631.5,300.5 Z"/></g>
<g><path style="opacity:1" fill="#d7d6da" d="M 355.5,310.5 C 359.167,310.5 362.833,310.5 366.5,310.5C 366.5,311.833 366.5,313.167 366.5,314.5C 362.833,314.5 359.167,314.5 355.5,314.5C 355.5,313.167 355.5,311.833 355.5,310.5 Z"/></g>
<g><path style="opacity:1" fill="#00b1c3" d="M 398.5,311.5 C 398.5,312.167 398.5,312.833 398.5,313.5C 370.5,312.833 370.5,312.167 398.5,311.5 Z"/></g>
<g><path style="opacity:1" fill="#0e8dc8" d="M 402.5,310.5 C 405.167,310.5 407.833,310.5 410.5,310.5C 410.5,311.833 410.5,313.167 410.5,314.5C 407.833,314.5 405.167,314.5 402.5,314.5C 402.5,313.167 402.5,311.833 402.5,310.5 Z"/></g>
<g><path style="opacity:1" fill="#119db1" d="M 631.5,310.5 C 635.167,310.5 638.833,310.5 642.5,310.5C 642.5,311.833 642.5,313.167 642.5,314.5C 638.833,314.5 635.167,314.5 631.5,314.5C 631.5,313.167 631.5,311.833 631.5,310.5 Z"/></g>
<g><path style="opacity:1" fill="#1084bd" d="M 643.5,310.5 C 644.833,310.5 646.167,310.5 647.5,310.5C 647.5,311.833 647.5,313.167 647.5,314.5C 646.167,314.5 644.833,314.5 643.5,314.5C 643.5,313.167 643.5,311.833 643.5,310.5 Z"/></g>
<g><path style="opacity:1" fill="#1c7889" d="M 398.5,311.5 C 370.5,312.167 370.5,312.833 398.5,313.5C 391.352,314.492 384.019,314.825 376.5,314.5C 376.5,313.167 376.5,311.833 376.5,310.5C 384.019,310.175 391.352,310.508 398.5,311.5 Z"/></g>
<g><path style="opacity:1" fill="#8892a6" d="M 611.5,310.5 C 611.5,311.5 611.5,312.5 611.5,313.5C 614.5,313.5 617.5,313.5 620.5,313.5C 620.5,312.5 620.5,311.5 620.5,310.5C 621.434,311.568 621.768,312.901 621.5,314.5C 617.833,314.5 614.167,314.5 610.5,314.5C 610.232,312.901 610.566,311.568 611.5,310.5 Z"/></g>
<g><path style="opacity:1" fill="#f1f3f4" d="M 611.5,310.5 C 614.5,310.5 617.5,310.5 620.5,310.5C 620.5,311.5 620.5,312.5 620.5,313.5C 617.5,313.5 614.5,313.5 611.5,313.5C 611.5,312.5 611.5,311.5 611.5,310.5 Z"/></g>
<g><path style="opacity:1" fill="#fcfcfc" d="M 355.5,321.5 C 368.833,322.167 368.833,322.833 355.5,323.5C 355.5,322.833 355.5,322.167 355.5,321.5 Z"/></g>
<g><path style="opacity:1" fill="#fdfdfd" d="M 402.5,321.5 C 417.515,321.167 432.515,321.501 447.5,322.5C 440,322.833 432.5,323.167 425,323.5C 417.136,323.497 409.636,322.831 402.5,321.5 Z"/></g>
<g><path style="opacity:1" fill="#fefffe" d="M 451.5,321.5 C 455.226,321.177 458.893,321.511 462.5,322.5C 460.667,322.833 458.833,323.167 457,323.5C 454.705,323.453 452.871,322.787 451.5,321.5 Z"/></g>
<g><path style="opacity:1" fill="#fdfdfd" d="M 469.5,321.5 C 491.177,321.167 512.844,321.5 534.5,322.5C 523.667,322.833 512.833,323.167 502,323.5C 490.812,323.499 479.979,322.832 469.5,321.5 Z"/></g>
<g><path style="opacity:1" fill="#fefffe" d="M 620.5,321.5 C 620.5,322.167 620.5,322.833 620.5,323.5C 608.5,322.833 608.5,322.167 620.5,321.5 Z"/></g>
<g><path style="opacity:1" fill="#fdfefe" d="M 664.5,321.5 C 664.5,322.167 664.5,322.833 664.5,323.5C 637.833,322.833 637.833,322.167 664.5,321.5 Z"/></g>
<g><path style="opacity:1" fill="#fefffe" d="M 666.5,321.5 C 668.288,321.215 669.955,321.548 671.5,322.5C 670.667,322.833 669.833,323.167 669,323.5C 667.624,323.316 666.791,322.649 666.5,321.5 Z"/></g>
<g><path style="opacity:1" fill="#fdfdfe" d="M 674.5,321.5 C 684.522,321.168 694.522,321.501 704.5,322.5C 699.5,322.833 694.5,323.167 689.5,323.5C 684.119,323.494 679.119,322.828 674.5,321.5 Z"/></g>
<g><path style="opacity:0.165" fill="#b47c74" d="M 773.5,238.5 C 774.167,238.5 774.833,238.5 775.5,238.5C 775.335,242.182 775.501,245.848 776,249.5C 777.611,252.332 778.778,255.332 779.5,258.5C 777.568,267.32 775.401,275.987 773,284.5C 776.32,286.065 779.82,287.398 783.5,288.5C 784.333,289.5 785.167,290.5 786,291.5C 788.614,300.345 791.448,309.178 794.5,318C 796.618,318.26 798.284,319.26 799.5,321C 805.11,321.722 810.61,321.222 816,319.5C 817.167,319.833 818.333,320.167 819.5,320.5C 820.719,326.805 821.719,333.138 822.5,339.5C 817.762,343.578 812.762,347.244 807.5,350.5C 807.414,349.504 807.748,348.671 808.5,348C 812.916,345.588 816.749,342.422 820,338.5C 820.471,332.995 819.804,327.662 818,322.5C 817.439,321.978 816.772,321.645 816,321.5C 803.644,328.038 794.644,325.038 789,312.5C 786.532,305.717 784.698,298.717 783.5,291.5C 779.691,288.707 775.357,287.374 770.5,287.5C 770.335,284.482 770.502,281.482 771,278.5C 774.167,272.656 776.333,266.489 777.5,260C 775.335,253.735 774.002,247.235 773.5,240.5C 773.5,239.833 773.5,239.167 773.5,238.5 Z"/></g>
<g><path style="opacity:1" fill="#787882" d="M 355.5,321.5 C 358.962,320.518 362.629,320.185 366.5,320.5C 366.5,321.833 366.5,323.167 366.5,324.5C 362.629,324.815 358.962,324.482 355.5,323.5C 368.833,322.833 368.833,322.167 355.5,321.5 Z"/></g>
<g><path style="opacity:1" fill="#7f8aa0" d="M 620.5,321.5 C 608.5,322.167 608.5,322.833 620.5,323.5C 617.375,324.479 614.042,324.813 610.5,324.5C 610.5,323.167 610.5,321.833 610.5,320.5C 614.042,320.187 617.375,320.521 620.5,321.5 Z"/></g>
<g><path style="opacity:1" fill="#7e899f" d="M 664.5,321.5 C 637.833,322.167 637.833,322.833 664.5,323.5C 657.687,324.491 650.687,324.825 643.5,324.5C 643.5,323.167 643.5,321.833 643.5,320.5C 650.687,320.175 657.687,320.509 664.5,321.5 Z"/></g>
<g><path style="opacity:0.8" fill="#ba776a" d="M 880.5,304.5 C 878.244,305.465 876.577,307.132 875.5,309.5C 877.39,316.267 880.057,322.6 883.5,328.5C 881.833,328.5 880.167,328.5 878.5,328.5C 877.39,324.594 876.557,320.594 876,316.5C 874.348,313.492 872.848,310.492 871.5,307.5C 874.294,306.079 877.294,305.079 880.5,304.5 Z"/></g>
<g><path style="opacity:0.516" fill="#342a3e" d="M 757.5,242.5 C 759.219,286.321 759.886,330.321 759.5,374.5C 758.833,374.5 758.167,374.5 757.5,374.5C 757.5,330.5 757.5,286.5 757.5,242.5 Z"/></g>
<g><path style="opacity:1" fill="#fbfbfb" d="M 412.5,329.5 C 422.167,329.5 431.833,329.5 441.5,329.5C 441.5,330.5 441.5,331.5 441.5,332.5C 431.833,332.5 422.167,332.5 412.5,332.5C 412.5,331.5 412.5,330.5 412.5,329.5 Z"/></g>
<g><path style="opacity:1" fill="#f1f1f2" d="M 445.5,329.5 C 449.5,329.5 453.5,329.5 457.5,329.5C 457.5,330.5 457.5,331.5 457.5,332.5C 453.5,332.5 449.5,332.5 445.5,332.5C 445.5,331.5 445.5,330.5 445.5,329.5 Z"/></g>
<g><path style="opacity:1" fill="#fefffe" d="M 461.5,329.5 C 465.167,329.5 468.833,329.5 472.5,329.5C 472.5,330.5 472.5,331.5 472.5,332.5C 468.833,332.5 465.167,332.5 461.5,332.5C 461.5,331.5 461.5,330.5 461.5,329.5 Z"/></g>
<g><path style="opacity:1" fill="#fbfbfc" d="M 479.5,329.5 C 487.167,329.5 494.833,329.5 502.5,329.5C 502.5,330.5 502.5,331.5 502.5,332.5C 494.833,332.5 487.167,332.5 479.5,332.5C 479.5,331.5 479.5,330.5 479.5,329.5 Z"/></g>
<g><path style="opacity:1" fill="#fefffe" d="M 648.5,329.5 C 652.833,329.5 657.167,329.5 661.5,329.5C 661.5,330.5 661.5,331.5 661.5,332.5C 657.167,332.5 652.833,332.5 648.5,332.5C 648.5,331.5 648.5,330.5 648.5,329.5 Z"/></g>
<g><path style="opacity:1" fill="#e5e7ec" d="M 663.5,329.5 C 665.5,329.5 667.5,329.5 669.5,329.5C 669.5,330.5 669.5,331.5 669.5,332.5C 667.5,332.5 665.5,332.5 663.5,332.5C 663.5,331.5 663.5,330.5 663.5,329.5 Z"/></g>
<g><path style="opacity:1" fill="#edeef1" d="M 670.5,329.5 C 672.5,329.5 674.5,329.5 676.5,329.5C 676.5,330.5 676.5,331.5 676.5,332.5C 674.5,332.5 672.5,332.5 670.5,332.5C 670.5,331.5 670.5,330.5 670.5,329.5 Z"/></g>
<g><path style="opacity:1" fill="#fefffe" d="M 679.5,329.5 C 682.833,329.5 686.167,329.5 689.5,329.5C 689.5,330.5 689.5,331.5 689.5,332.5C 686.167,332.5 682.833,332.5 679.5,332.5C 679.5,331.5 679.5,330.5 679.5,329.5 Z"/></g>
<g><path style="opacity:1" fill="#dab878" d="M 878.5,328.5 C 880.167,328.5 881.833,328.5 883.5,328.5C 888.342,331.508 893.342,334.175 898.5,336.5C 897.224,337.386 897.224,338.386 898.5,339.5C 905.931,343.632 913.431,347.632 921,351.5C 922.03,351.164 922.53,350.497 922.5,349.5C 923.167,349.5 923.5,349.833 923.5,350.5C 923.414,351.496 923.748,352.329 924.5,353C 930.297,354.729 935.297,357.729 939.5,362C 944.716,364.52 950.05,366.853 955.5,369C 957.774,371.926 960.774,373.426 964.5,373.5C 964.265,392.145 964.099,410.812 964,429.5C 963.83,436.172 962.33,442.505 959.5,448.5C 939.177,447.35 918.844,446.85 898.5,447C 873.16,447.226 848.16,450.059 823.5,455.5C 813.716,457.423 804.716,461.09 796.5,466.5C 800.841,437.041 792.508,411.875 771.5,391C 768.929,389.546 766.262,388.38 763.5,387.5C 765.233,383.435 768.233,380.768 772.5,379.5C 785.68,371.653 797.347,361.986 807.5,350.5C 812.762,347.244 817.762,343.578 822.5,339.5C 825.353,338.047 828.353,336.881 831.5,336C 847.247,333.822 862.914,331.322 878.5,328.5 Z"/></g>
<g><path style="opacity:1" fill="#fcfcfc" d="M 355.5,331.5 C 368.833,332.167 368.833,332.833 355.5,333.5C 355.5,332.833 355.5,332.167 355.5,331.5 Z"/></g>
<g><path style="opacity:1" fill="#97979f" d="M 355.5,331.5 C 358.962,330.518 362.629,330.185 366.5,330.5C 366.5,331.833 366.5,333.167 366.5,334.5C 362.629,334.815 358.962,334.482 355.5,333.5C 368.833,332.833 368.833,332.167 355.5,331.5 Z"/></g>
<g><path style="opacity:1" fill="#949eae" d="M 610.5,330.5 C 614.167,330.5 617.833,330.5 621.5,330.5C 621.5,331.833 621.5,333.167 621.5,334.5C 617.833,334.5 614.167,334.5 610.5,334.5C 610.5,333.167 610.5,331.833 610.5,330.5 Z"/></g>
<g><path style="opacity:1" fill="#fffffe" d="M 611.5,331.5 C 614.572,331.183 617.572,331.516 620.5,332.5C 619,332.833 617.5,333.167 616,333.5C 614.014,333.431 612.514,332.765 611.5,331.5 Z"/></g>
<g><path style="opacity:1" fill="#2e2f41" d="M 886.5,338.5 C 887.675,338.281 888.675,338.614 889.5,339.5C 880.323,345.134 870.323,348.634 859.5,350C 845.847,351.589 832.18,351.755 818.5,350.5C 834.546,349.398 850.546,347.898 866.5,346C 873.487,344.097 880.153,341.597 886.5,338.5 Z"/></g>
<g><path style="opacity:1" fill="#fafafa" d="M 412.5,339.5 C 427.5,339.5 442.5,339.5 457.5,339.5C 457.5,340.5 457.5,341.5 457.5,342.5C 442.5,342.5 427.5,342.5 412.5,342.5C 412.5,341.5 412.5,340.5 412.5,339.5 Z"/></g>
<g><path style="opacity:1" fill="#fbfbfb" d="M 461.5,339.5 C 465.167,339.5 468.833,339.5 472.5,339.5C 472.5,340.5 472.5,341.5 472.5,342.5C 468.833,342.5 465.167,342.5 461.5,342.5C 461.5,341.5 461.5,340.5 461.5,339.5 Z"/></g>
<g><path style="opacity:1" fill="#fbfbfb" d="M 479.5,339.5 C 500.833,339.5 522.167,339.5 543.5,339.5C 543.5,340.5 543.5,341.5 543.5,342.5C 522.167,342.5 500.833,342.5 479.5,342.5C 479.5,341.5 479.5,340.5 479.5,339.5 Z"/></g>
<g><path style="opacity:1" fill="#f7f8f9" d="M 648.5,339.5 C 655.5,339.5 662.5,339.5 669.5,339.5C 669.5,340.5 669.5,341.5 669.5,342.5C 662.5,342.5 655.5,342.5 648.5,342.5C 648.5,341.5 648.5,340.5 648.5,339.5 Z"/></g>
<g><path style="opacity:1" fill="#f1f2f5" d="M 670.5,339.5 C 672.5,339.5 674.5,339.5 676.5,339.5C 676.5,340.5 676.5,341.5 676.5,342.5C 674.5,342.5 672.5,342.5 670.5,342.5C 670.5,341.5 670.5,340.5 670.5,339.5 Z"/></g>
<g><path style="opacity:1" fill="#fbfbfc" d="M 679.5,339.5 C 689.167,339.5 698.833,339.5 708.5,339.5C 708.5,340.5 708.5,341.5 708.5,342.5C 698.833,342.5 689.167,342.5 679.5,342.5C 679.5,341.5 679.5,340.5 679.5,339.5 Z"/></g>
<g><path style="opacity:1" fill="#cfced2" d="M 355.5,340.5 C 359.167,340.5 362.833,340.5 366.5,340.5C 366.5,341.833 366.5,343.167 366.5,344.5C 362.833,344.5 359.167,344.5 355.5,344.5C 355.5,343.167 355.5,341.833 355.5,340.5 Z"/></g>
<g><path style="opacity:1" fill="#d1d5dd" d="M 610.5,340.5 C 613.833,340.5 617.167,340.5 620.5,340.5C 620.5,341.833 620.5,343.167 620.5,344.5C 617.167,344.5 613.833,344.5 610.5,344.5C 610.5,343.167 610.5,341.833 610.5,340.5 Z"/></g>
<g><path style="opacity:0.608" fill="#b38d63" d="M 898.5,336.5 C 906.514,340.84 914.514,345.173 922.5,349.5C 922.53,350.497 922.03,351.164 921,351.5C 913.431,347.632 905.931,343.632 898.5,339.5C 897.224,338.386 897.224,337.386 898.5,336.5 Z"/></g>
<g><path style="opacity:1" fill="#f4f4f4" d="M 355.5,351.5 C 359.167,351.5 362.833,351.5 366.5,351.5C 366.5,352.5 366.5,353.5 366.5,354.5C 362.833,354.5 359.167,354.5 355.5,354.5C 355.5,353.5 355.5,352.5 355.5,351.5 Z"/></g>
<g><path style="opacity:1" fill="#fefefe" d="M 412.5,351.5 C 434.167,351.5 455.833,351.5 477.5,351.5C 477.5,352.5 477.5,353.5 477.5,354.5C 455.833,354.5 434.167,354.5 412.5,354.5C 412.5,353.5 412.5,352.5 412.5,351.5 Z"/></g>
<g><path style="opacity:1" fill="#fffffe" d="M 481.5,351.5 C 498.167,351.5 514.833,351.5 531.5,351.5C 531.5,352.5 531.5,353.5 531.5,354.5C 514.833,354.5 498.167,354.5 481.5,354.5C 481.5,353.5 481.5,352.5 481.5,351.5 Z"/></g>
<g><path style="opacity:1" fill="#f7f8f9" d="M 610.5,351.5 C 613.833,351.5 617.167,351.5 620.5,351.5C 620.5,352.5 620.5,353.5 620.5,354.5C 617.167,354.5 613.833,354.5 610.5,354.5C 610.5,353.5 610.5,352.5 610.5,351.5 Z"/></g>
<g><path style="opacity:1" fill="#fbfcfc" d="M 648.5,351.5 C 658.5,351.5 668.5,351.5 678.5,351.5C 678.5,352.5 678.5,353.5 678.5,354.5C 668.5,354.5 658.5,354.5 648.5,354.5C 648.5,353.5 648.5,352.5 648.5,351.5 Z"/></g>
<g><path style="opacity:1" fill="#f7f8f9" d="M 679.5,351.5 C 687.5,351.5 695.5,351.5 703.5,351.5C 703.5,352.5 703.5,353.5 703.5,354.5C 695.5,354.5 687.5,354.5 679.5,354.5C 679.5,353.5 679.5,352.5 679.5,351.5 Z"/></g>
<g><path style="opacity:1" fill="#f4f4f4" d="M 355.5,361.5 C 359.167,361.5 362.833,361.5 366.5,361.5C 366.5,362.5 366.5,363.5 366.5,364.5C 362.833,364.5 359.167,364.5 355.5,364.5C 355.5,363.5 355.5,362.5 355.5,361.5 Z"/></g>
<g><path style="opacity:1" fill="#01aec0" d="M 376.5,361.5 C 383.833,361.5 391.167,361.5 398.5,361.5C 398.5,362.5 398.5,363.5 398.5,364.5C 391.167,364.5 383.833,364.5 376.5,364.5C 376.5,363.5 376.5,362.5 376.5,361.5 Z"/></g>
<g><path style="opacity:1" fill="#009fe2" d="M 402.5,361.5 C 405.167,361.5 407.833,361.5 410.5,361.5C 410.5,362.5 410.5,363.5 410.5,364.5C 407.833,364.5 405.167,364.5 402.5,364.5C 402.5,363.5 402.5,362.5 402.5,361.5 Z"/></g>
<g><path style="opacity:1" fill="#f7f8f9" d="M 610.5,361.5 C 613.833,361.5 617.167,361.5 620.5,361.5C 620.5,362.5 620.5,363.5 620.5,364.5C 617.167,364.5 613.833,364.5 610.5,364.5C 610.5,363.5 610.5,362.5 610.5,361.5 Z"/></g>
<g><path style="opacity:1" fill="#02abbd" d="M 631.5,361.5 C 635.167,361.5 638.833,361.5 642.5,361.5C 642.5,362.5 642.5,363.5 642.5,364.5C 638.833,364.5 635.167,364.5 631.5,364.5C 631.5,363.5 631.5,362.5 631.5,361.5 Z"/></g>
<g><path style="opacity:0.729" fill="#ae9063" d="M 807.5,350.5 C 797.347,361.986 785.68,371.653 772.5,379.5C 773.11,378.609 773.443,377.609 773.5,376.5C 783.907,368.087 794.241,359.587 804.5,351C 805.448,350.517 806.448,350.351 807.5,350.5 Z"/></g>
<g><path style="opacity:1" fill="#dadadd" d="M 355.5,371.5 C 359.167,371.5 362.833,371.5 366.5,371.5C 366.5,372.833 366.5,374.167 366.5,375.5C 362.833,375.5 359.167,375.5 355.5,375.5C 355.5,374.167 355.5,372.833 355.5,371.5 Z"/></g>
<g><path style="opacity:1" fill="#8f9aab" d="M 611.5,371.5 C 611.5,372.5 611.5,373.5 611.5,374.5C 614.5,374.5 617.5,374.5 620.5,374.5C 620.5,373.5 620.5,372.5 620.5,371.5C 621.434,372.568 621.768,373.901 621.5,375.5C 617.833,375.5 614.167,375.5 610.5,375.5C 610.232,373.901 610.566,372.568 611.5,371.5 Z"/></g>
<g><path style="opacity:1" fill="#f3f4f6" d="M 611.5,371.5 C 614.5,371.5 617.5,371.5 620.5,371.5C 620.5,372.5 620.5,373.5 620.5,374.5C 617.5,374.5 614.5,374.5 611.5,374.5C 611.5,373.5 611.5,372.5 611.5,371.5 Z"/></g>
<g><path style="opacity:1" fill="#94c11f" d="M 402.5,375.5 C 459.833,376.167 459.833,376.833 402.5,377.5C 402.5,376.833 402.5,376.167 402.5,375.5 Z"/></g>
<g><path style="opacity:1" fill="#6a843d" d="M 402.5,375.5 C 416.99,374.504 431.657,374.171 446.5,374.5C 446.5,375.833 446.5,377.167 446.5,378.5C 431.657,378.829 416.99,378.496 402.5,377.5C 459.833,376.833 459.833,376.167 402.5,375.5 Z"/></g>
<g><path style="opacity:1" fill="#698c4f" d="M 643.5,374.5 C 650.5,374.5 657.5,374.5 664.5,374.5C 664.5,375.833 664.5,377.167 664.5,378.5C 657.5,378.5 650.5,378.5 643.5,378.5C 643.5,377.167 643.5,375.833 643.5,374.5 Z"/></g>
<g><path style="opacity:1" fill="#94c11f" d="M 644.5,375.5 C 650.868,375.17 657.202,375.504 663.5,376.5C 660.333,376.833 657.167,377.167 654,377.5C 650.424,377.485 647.258,376.818 644.5,375.5 Z"/></g>
<g><path style="opacity:1" fill="#282b3f" d="M 966.5,431.5 C 965.637,437.286 964.303,442.953 962.5,448.5C 961.5,448.5 960.5,448.5 959.5,448.5C 962.33,442.505 963.83,436.172 964,429.5C 964.099,410.812 964.265,392.145 964.5,373.5C 964.56,372.957 964.893,372.624 965.5,372.5C 966.5,392.155 966.833,411.822 966.5,431.5 Z"/></g>
<g><path style="opacity:0.192" fill="#a88562" d="M 923.5,350.5 C 927.107,352.064 930.774,353.564 934.5,355C 943.01,360.059 951.676,364.893 960.5,369.5C 962.766,370.314 965.1,370.814 967.5,371C 972.552,381.936 978.052,392.769 984,403.5C 984.822,406.117 985.322,408.784 985.5,411.5C 982.616,404.731 979.45,398.065 976,391.5C 973.816,387.119 971.15,383.119 968,379.5C 967.832,397.005 967.332,414.338 966.5,431.5C 966.833,411.822 966.5,392.155 965.5,372.5C 964.893,372.624 964.56,372.957 964.5,373.5C 960.774,373.426 957.774,371.926 955.5,369C 950.05,366.853 944.716,364.52 939.5,362C 935.297,357.729 930.297,354.729 924.5,353C 923.748,352.329 923.414,351.496 923.5,350.5 Z"/></g>
<g><path style="opacity:0.369" fill="#896e57" d="M 757.5,374.5 C 758.167,374.5 758.833,374.5 759.5,374.5C 759.833,374.5 760.167,374.5 760.5,374.5C 760.5,377.833 760.5,381.167 760.5,384.5C 761.552,384.649 762.552,384.483 763.5,384C 766.422,380.905 769.756,378.405 773.5,376.5C 773.443,377.609 773.11,378.609 772.5,379.5C 768.233,380.768 765.233,383.435 763.5,387.5C 762.833,387.5 762.167,387.5 761.5,387.5C 759.938,387.733 758.605,388.4 757.5,389.5C 757.5,388.833 757.5,388.167 757.5,387.5C 757.5,383.167 757.5,378.833 757.5,374.5 Z"/></g>
<g><path style="opacity:1" fill="#d8b677" d="M 985.5,411.5 C 985.951,418.722 987.451,425.722 990,432.5C 990.831,438.477 991.331,444.477 991.5,450.5C 981.809,450.164 972.142,449.497 962.5,448.5C 964.303,442.953 965.637,437.286 966.5,431.5C 967.332,414.338 967.832,397.005 968,379.5C 971.15,383.119 973.816,387.119 976,391.5C 979.45,398.065 982.616,404.731 985.5,411.5 Z"/></g>
<g><path style="opacity:1" fill="#bfbfc5" d="M 355.5,381.5 C 359.167,381.5 362.833,381.5 366.5,381.5C 366.5,382.833 366.5,384.167 366.5,385.5C 362.833,385.5 359.167,385.5 355.5,385.5C 355.5,384.167 355.5,382.833 355.5,381.5 Z"/></g>
<g><path style="opacity:1" fill="#c2c7d3" d="M 610.5,381.5 C 613.833,381.5 617.167,381.5 620.5,381.5C 620.5,382.833 620.5,384.167 620.5,385.5C 617.167,385.5 613.833,385.5 610.5,385.5C 610.5,384.167 610.5,382.833 610.5,381.5 Z"/></g>
<g><path style="opacity:1" fill="#2e3041" d="M 761.5,387.5 C 762.167,387.5 762.833,387.5 763.5,387.5C 766.262,388.38 768.929,389.546 771.5,391C 792.508,411.875 800.841,437.041 796.5,466.5C 796.167,467.5 795.5,468.167 794.5,468.5C 797.792,442.503 791.626,419.17 776,398.5C 772.279,394.449 767.779,391.616 762.5,390C 761.748,389.329 761.414,388.496 761.5,387.5 Z"/></g>
<g><path style="opacity:1" fill="#f3a499" d="M 570.5,456.5 C 568.26,457.568 566.426,459.234 565,461.5C 562.189,466.783 559.689,472.116 557.5,477.5C 545.407,474.447 534.074,469.78 523.5,463.5C 522.694,462.272 521.694,461.272 520.5,460.5C 518.295,458.637 516.961,456.303 516.5,453.5C 516.5,452.5 516.5,451.5 516.5,450.5C 516.716,446.941 516.382,443.441 515.5,440C 520.143,434.687 524.81,429.354 529.5,424C 530.938,423.781 532.271,423.281 533.5,422.5C 529.436,416.278 525.603,409.944 522,403.5C 521.262,401.047 520.762,398.547 520.5,396C 520.305,393.226 521.305,391.059 523.5,389.5C 532.566,401.284 541.399,413.284 550,425.5C 554,429.5 558,433.5 562,437.5C 565.411,443.649 568.244,449.982 570.5,456.5 Z"/></g>
<g><path style="opacity:1" fill="#dab878" d="M 761.5,387.5 C 761.414,388.496 761.748,389.329 762.5,390C 767.779,391.616 772.279,394.449 776,398.5C 791.626,419.17 797.792,442.503 794.5,468.5C 783.82,479.203 777.987,492.203 777,507.5C 776.345,525.419 779.179,542.752 785.5,559.5C 784.042,561.932 782.875,564.599 782,567.5C 778.333,580.833 774.667,594.167 771,607.5C 767.065,615.705 761.898,623.038 755.5,629.5C 745.546,638.128 734.046,641.128 721,638.5C 715.013,637.211 709.18,635.377 703.5,633C 693.204,627.173 682.537,622.006 671.5,617.5C 665.614,613.549 659.281,610.049 652.5,607C 634.933,595.251 617.266,583.751 599.5,572.5C 594.833,569.167 590.167,565.833 585.5,562.5C 585.5,561.833 585.167,561.5 584.5,561.5C 581.538,558.036 578.371,554.703 575,551.5C 565.966,536.397 560.133,520.063 557.5,502.5C 557.5,502.167 557.5,501.833 557.5,501.5C 557.5,498.5 557.5,495.5 557.5,492.5C 557.5,487.5 557.5,482.5 557.5,477.5C 559.689,472.116 562.189,466.783 565,461.5C 566.426,459.234 568.26,457.568 570.5,456.5C 580.476,464.136 590.476,471.802 600.5,479.5C 601.527,481.194 602.861,482.527 604.5,483.5C 604.842,484.338 605.508,484.672 606.5,484.5C 608.88,487.881 611.88,490.547 615.5,492.5C 619.254,496.548 623.587,499.882 628.5,502.5C 636.489,508.833 645.156,514.167 654.5,518.5C 657.328,520.47 660.328,522.303 663.5,524C 671.007,527.092 678.673,529.592 686.5,531.5C 689.909,532.625 693.242,533.959 696.5,535.5C 708.673,536.825 721.006,536.825 733.5,535.5C 732.271,534.719 730.938,534.219 729.5,534C 722.174,533.5 714.841,533.334 707.5,533.5C 708.455,528.58 709.122,523.58 709.5,518.5C 710.493,512.628 711.493,506.628 712.5,500.5C 712.833,497.833 713.167,495.167 713.5,492.5C 714.939,464.275 721.939,437.609 734.5,412.5C 738.189,408.135 741.522,403.469 744.5,398.5C 748.659,395.253 752.992,392.253 757.5,389.5C 758.605,388.4 759.938,387.733 761.5,387.5 Z"/></g>
<g><path style="opacity:1" fill="#fcfcfc" d="M 355.5,392.5 C 368.833,393.167 368.833,393.833 355.5,394.5C 355.5,393.833 355.5,393.167 355.5,392.5 Z"/></g>
<g><path style="opacity:1" fill="#e54645" d="M 418.5,392.5 C 423.619,391.897 428.285,392.564 432.5,394.5C 427.381,395.103 422.715,394.436 418.5,392.5 Z"/></g>
<g><path style="opacity:1" fill="#9a99a1" d="M 355.5,392.5 C 358.962,391.518 362.629,391.185 366.5,391.5C 366.5,392.833 366.5,394.167 366.5,395.5C 362.629,395.815 358.962,395.482 355.5,394.5C 368.833,393.833 368.833,393.167 355.5,392.5 Z"/></g>
<g><path style="opacity:1" fill="#943d44" d="M 418.5,392.5 C 422.715,394.436 427.381,395.103 432.5,394.5C 427.695,395.487 422.695,395.821 417.5,395.5C 417.263,394.209 417.596,393.209 418.5,392.5 Z"/></g>
<g><path style="opacity:1" fill="#959fb0" d="M 620.5,392.5 C 621.404,393.209 621.737,394.209 621.5,395.5C 617.833,395.5 614.167,395.5 610.5,395.5C 610.5,394.167 610.5,392.833 610.5,391.5C 614.042,391.187 617.375,391.521 620.5,392.5 Z"/></g>
<g><path style="opacity:1" fill="#fefffe" d="M 620.5,392.5 C 619.486,393.765 617.986,394.431 616,394.5C 614.5,394.167 613,393.833 611.5,393.5C 614.428,392.516 617.428,392.183 620.5,392.5 Z"/></g>
<g><path style="opacity:1" fill="#ae4e54" d="M 650.5,391.5 C 652.833,391.5 655.167,391.5 657.5,391.5C 657.5,392.833 657.5,394.167 657.5,395.5C 655.167,395.5 652.833,395.5 650.5,395.5C 650.5,394.167 650.5,392.833 650.5,391.5 Z"/></g>
<g><path style="opacity:1" fill="#cbcbcf" d="M 355.5,401.5 C 359.167,401.5 362.833,401.5 366.5,401.5C 366.5,402.833 366.5,404.167 366.5,405.5C 362.833,405.5 359.167,405.5 355.5,405.5C 355.5,404.167 355.5,402.833 355.5,401.5 Z"/></g>
<g><path style="opacity:1" fill="#e54646" d="M 457.5,404.5 C 457.5,405.167 457.5,405.833 457.5,406.5C 405.5,405.833 405.5,405.167 457.5,404.5 Z"/></g>
<g><path style="opacity:1" fill="#ced3db" d="M 610.5,401.5 C 613.833,401.5 617.167,401.5 620.5,401.5C 620.5,402.833 620.5,404.167 620.5,405.5C 617.167,405.5 613.833,405.5 610.5,405.5C 610.5,404.167 610.5,402.833 610.5,401.5 Z"/></g>
<g><path style="opacity:1" fill="#9c3f45" d="M 457.5,404.5 C 405.5,405.167 405.5,405.833 457.5,406.5C 444.344,407.496 431.01,407.829 417.5,407.5C 417.5,406.167 417.5,404.833 417.5,403.5C 431.01,403.171 444.344,403.504 457.5,404.5 Z"/></g>
<g><path style="opacity:1" fill="#9e4a55" d="M 650.5,403.5 C 656.833,403.5 663.167,403.5 669.5,403.5C 669.5,404.833 669.5,406.167 669.5,407.5C 663.167,407.5 656.833,407.5 650.5,407.5C 650.5,406.167 650.5,404.833 650.5,403.5 Z"/></g>
<g><path style="opacity:1" fill="#e54645" d="M 651.5,404.5 C 657.206,404.171 662.872,404.505 668.5,405.5C 665.667,405.833 662.833,406.167 660,406.5C 656.748,406.481 653.915,405.814 651.5,404.5 Z"/></g>
<g><path style="opacity:1" fill="#f4f4f4" d="M 355.5,412.5 C 359.167,412.5 362.833,412.5 366.5,412.5C 366.5,413.5 366.5,414.5 366.5,415.5C 362.833,415.5 359.167,415.5 355.5,415.5C 355.5,414.5 355.5,413.5 355.5,412.5 Z"/></g>
<g><path style="opacity:1" fill="#04a9bb" d="M 417.5,412.5 C 422.833,412.5 428.167,412.5 433.5,412.5C 433.5,413.5 433.5,414.5 433.5,415.5C 428.167,415.5 422.833,415.5 417.5,415.5C 417.5,414.5 417.5,413.5 417.5,412.5 Z"/></g>
<g><path style="opacity:1" fill="#f7f8f9" d="M 610.5,412.5 C 613.833,412.5 617.167,412.5 620.5,412.5C 620.5,413.5 620.5,414.5 620.5,415.5C 617.167,415.5 613.833,415.5 610.5,415.5C 610.5,414.5 610.5,413.5 610.5,412.5 Z"/></g>
<g><path style="opacity:1" fill="#00b1c2" d="M 651.5,412.5 C 653.5,412.5 655.5,412.5 657.5,412.5C 657.5,413.5 657.5,414.5 657.5,415.5C 655.5,415.5 653.5,415.5 651.5,415.5C 651.5,414.5 651.5,413.5 651.5,412.5 Z"/></g>
<g><path style="opacity:1" fill="#f4f4f4" d="M 355.5,422.5 C 359.167,422.5 362.833,422.5 366.5,422.5C 366.5,423.5 366.5,424.5 366.5,425.5C 362.833,425.5 359.167,425.5 355.5,425.5C 355.5,424.5 355.5,423.5 355.5,422.5 Z"/></g>
<g><path style="opacity:1" fill="#01adbf" d="M 417.5,422.5 C 425.167,422.5 432.833,422.5 440.5,422.5C 440.5,423.5 440.5,424.5 440.5,425.5C 432.833,425.5 425.167,425.5 417.5,425.5C 417.5,424.5 417.5,423.5 417.5,422.5 Z"/></g>
<g><path style="opacity:1" fill="#009fe2" d="M 444.5,422.5 C 446.833,422.5 449.167,422.5 451.5,422.5C 451.5,423.5 451.5,424.5 451.5,425.5C 449.167,425.5 446.833,425.5 444.5,425.5C 444.5,424.5 444.5,423.5 444.5,422.5 Z"/></g>
<g><path style="opacity:1" fill="#f7f8f9" d="M 610.5,422.5 C 613.833,422.5 617.167,422.5 620.5,422.5C 620.5,423.5 620.5,424.5 620.5,425.5C 617.167,425.5 613.833,425.5 610.5,425.5C 610.5,424.5 610.5,423.5 610.5,422.5 Z"/></g>
<g><path style="opacity:1" fill="#00b1c2" d="M 651.5,422.5 C 654.833,422.5 658.167,422.5 661.5,422.5C 661.5,423.5 661.5,424.5 661.5,425.5C 658.167,425.5 654.833,425.5 651.5,425.5C 651.5,424.5 651.5,423.5 651.5,422.5 Z"/></g>
<g><path style="opacity:1" fill="#dadadd" d="M 355.5,432.5 C 359.167,432.5 362.833,432.5 366.5,432.5C 366.5,433.833 366.5,435.167 366.5,436.5C 362.833,436.5 359.167,436.5 355.5,436.5C 355.5,435.167 355.5,433.833 355.5,432.5 Z"/></g>
<g><path style="opacity:1" fill="#8c96a8" d="M 611.5,432.5 C 611.5,433.5 611.5,434.5 611.5,435.5C 614.5,435.5 617.5,435.5 620.5,435.5C 620.5,434.5 620.5,433.5 620.5,432.5C 621.434,433.568 621.768,434.901 621.5,436.5C 617.833,436.5 614.167,436.5 610.5,436.5C 610.232,434.901 610.566,433.568 611.5,432.5 Z"/></g>
<g><path style="opacity:1" fill="#f4f5f7" d="M 611.5,432.5 C 614.5,432.5 617.5,432.5 620.5,432.5C 620.5,433.5 620.5,434.5 620.5,435.5C 617.5,435.5 614.5,435.5 611.5,435.5C 611.5,434.5 611.5,433.5 611.5,432.5 Z"/></g>
<g><path style="opacity:0.592" fill="#a17a63" d="M 985.5,411.5 C 986.497,411.47 987.164,411.97 987.5,413C 987.997,416.325 988.997,419.491 990.5,422.5C 992.517,431.803 994.183,441.136 995.5,450.5C 994.167,450.5 992.833,450.5 991.5,450.5C 991.331,444.477 990.831,438.477 990,432.5C 987.451,425.722 985.951,418.722 985.5,411.5 Z"/></g>
<g><path style="opacity:1" fill="#fafafa" d="M 448.5,438.5 C 458.167,438.5 467.833,438.5 477.5,438.5C 477.5,439.5 477.5,440.5 477.5,441.5C 467.833,441.5 458.167,441.5 448.5,441.5C 448.5,440.5 448.5,439.5 448.5,438.5 Z"/></g>
<g><path style="opacity:1" fill="#f9f9fa" d="M 482.5,438.5 C 486.167,438.5 489.833,438.5 493.5,438.5C 493.5,439.5 493.5,440.5 493.5,441.5C 489.833,441.5 486.167,441.5 482.5,441.5C 482.5,440.5 482.5,439.5 482.5,438.5 Z"/></g>
<g><path style="opacity:1" fill="#fafafb" d="M 497.5,438.5 C 501.5,438.5 505.5,438.5 509.5,438.5C 509.5,439.5 509.5,440.5 509.5,441.5C 505.5,441.5 501.5,441.5 497.5,441.5C 497.5,440.5 497.5,439.5 497.5,438.5 Z"/></g>
<g><path style="opacity:1" fill="#fefffe" d="M 665.5,438.5 C 669.5,438.5 673.5,438.5 677.5,438.5C 677.5,439.5 677.5,440.5 677.5,441.5C 673.5,441.5 669.5,441.5 665.5,441.5C 665.5,440.5 665.5,439.5 665.5,438.5 Z"/></g>
<g><path style="opacity:1" fill="#f9f9fb" d="M 680.5,438.5 C 682.167,438.5 683.833,438.5 685.5,438.5C 685.5,439.5 685.5,440.5 685.5,441.5C 683.833,441.5 682.167,441.5 680.5,441.5C 680.5,440.5 680.5,439.5 680.5,438.5 Z"/></g>
<g><path style="opacity:1" fill="#fefffe" d="M 687.5,438.5 C 689.167,438.5 690.833,438.5 692.5,438.5C 692.5,439.5 692.5,440.5 692.5,441.5C 690.833,441.5 689.167,441.5 687.5,441.5C 687.5,440.5 687.5,439.5 687.5,438.5 Z"/></g>
<g><path style="opacity:1" fill="#f8f9fa" d="M 695.5,438.5 C 699.167,438.5 702.833,438.5 706.5,438.5C 706.5,439.5 706.5,440.5 706.5,441.5C 702.833,441.5 699.167,441.5 695.5,441.5C 695.5,440.5 695.5,439.5 695.5,438.5 Z"/></g>
<g><path style="opacity:1" fill="#ceced2" d="M 355.5,442.5 C 359.167,442.5 362.833,442.5 366.5,442.5C 366.5,443.833 366.5,445.167 366.5,446.5C 362.833,446.5 359.167,446.5 355.5,446.5C 355.5,445.167 355.5,443.833 355.5,442.5 Z"/></g>
<g><path style="opacity:1" fill="#d2d5dd" d="M 610.5,442.5 C 613.833,442.5 617.167,442.5 620.5,442.5C 620.5,443.833 620.5,445.167 620.5,446.5C 617.167,446.5 613.833,446.5 610.5,446.5C 610.5,445.167 610.5,443.833 610.5,442.5 Z"/></g>
<g><path style="opacity:1" fill="#66426e" d="M 959.5,448.5 C 960.5,448.5 961.5,448.5 962.5,448.5C 972.142,449.497 981.809,450.164 991.5,450.5C 992.833,450.5 994.167,450.5 995.5,450.5C 1013.67,449.767 1028.67,456.101 1040.5,469.5C 1043.52,473.367 1045.68,477.7 1047,482.5C 1048.59,495.777 1048.92,509.11 1048,522.5C 1045.22,543.66 1042.72,564.66 1040.5,585.5C 1039.66,586.671 1038.99,588.005 1038.5,589.5C 1038.27,598.205 1037.6,606.872 1036.5,615.5C 1036.17,618.167 1035.83,620.833 1035.5,623.5C 1035.11,638.188 1034.28,652.854 1033,667.5C 1032.77,668.737 1032.27,669.737 1031.5,670.5C 1029.98,679.436 1028.64,689.103 1027.5,699.5C 1027.41,707.884 1026.74,716.217 1025.5,724.5C 1025.5,726.5 1025.5,728.5 1025.5,730.5C 1025.14,756.208 1024.47,781.875 1023.5,807.5C 1022.83,800.655 1022.17,793.655 1021.5,786.5C 1020.67,799.821 1020.17,813.154 1020,826.5C 1018.79,833.132 1017.79,839.798 1017,846.5C 1014.83,852.667 1010.67,856.833 1004.5,859C 971.818,858.839 939.484,859.672 907.5,861.5C 899.833,861.5 892.167,861.5 884.5,861.5C 885.127,872.885 886.127,884.218 887.5,895.5C 886.833,896.5 886.167,897.5 885.5,898.5C 884.879,887.135 883.879,875.802 882.5,864.5C 866.214,863.515 849.881,863.182 833.5,863.5C 832.71,864.609 832.21,865.942 832,867.5C 831.809,865.292 831.309,863.292 830.5,861.5C 826.167,861.5 821.833,861.5 817.5,861.5C 813.833,861.5 810.167,861.5 806.5,861.5C 806.167,861.5 805.833,861.5 805.5,861.5C 793.185,860.168 780.518,859.501 767.5,859.5C 754.833,859.667 742.167,859.833 729.5,860C 728.944,860.383 728.611,860.883 728.5,861.5C 728.167,861.5 727.833,861.5 727.5,861.5C 697.831,861.667 668.165,861.5 638.5,861C 633.839,860.501 629.839,858.668 626.5,855.5C 625.889,852.279 624.722,849.279 623,846.5C 622.333,835.833 622.333,825.167 623,814.5C 624.443,810.842 626.609,807.675 629.5,805C 628.262,805.077 627.262,804.911 626.5,804.5C 629.673,802.717 633.006,801.217 636.5,800C 685.166,799.5 733.832,799.333 782.5,799.5C 798.325,800.496 814.325,800.83 830.5,800.5C 839.507,767.485 845.34,733.818 848,699.5C 851.323,650.558 852.323,601.558 851,552.5C 850.374,531.241 847.707,510.241 843,489.5C 840.918,482.922 838.252,476.589 835,470.5C 831.31,465.32 827.477,460.32 823.5,455.5C 848.16,450.059 873.16,447.226 898.5,447C 918.844,446.85 939.177,447.35 959.5,448.5 Z"/></g>
<g><path style="opacity:1" fill="#f9f9fa" d="M 448.5,450.5 C 461.167,450.5 473.833,450.5 486.5,450.5C 486.5,451.5 486.5,452.5 486.5,453.5C 473.833,453.5 461.167,453.5 448.5,453.5C 448.5,452.5 448.5,451.5 448.5,450.5 Z"/></g>
<g><path style="opacity:1" fill="#fafafb" d="M 516.5,450.5 C 516.5,451.5 516.5,452.5 516.5,453.5C 507.833,453.5 499.167,453.5 490.5,453.5C 490.5,452.5 490.5,451.5 490.5,450.5C 499.167,450.5 507.833,450.5 516.5,450.5 Z"/></g>
<g><path style="opacity:1" fill="#fbfbfc" d="M 665.5,450.5 C 671.167,450.5 676.833,450.5 682.5,450.5C 682.5,451.5 682.5,452.5 682.5,453.5C 676.833,453.5 671.167,453.5 665.5,453.5C 665.5,452.5 665.5,451.5 665.5,450.5 Z"/></g>
<g><path style="opacity:1" fill="#fbfbfc" d="M 684.5,450.5 C 692.5,450.5 700.5,450.5 708.5,450.5C 708.5,451.5 708.5,452.5 708.5,453.5C 700.5,453.5 692.5,453.5 684.5,453.5C 684.5,452.5 684.5,451.5 684.5,450.5 Z"/></g>
<g><path style="opacity:1" fill="#e8e8ea" d="M 355.5,453.5 C 359.167,453.5 362.833,453.5 366.5,453.5C 366.5,454.5 366.5,455.5 366.5,456.5C 362.833,456.5 359.167,456.5 355.5,456.5C 355.5,455.5 355.5,454.5 355.5,453.5 Z"/></g>
<g><path style="opacity:1" fill="#ebedf0" d="M 610.5,453.5 C 613.833,453.5 617.167,453.5 620.5,453.5C 620.5,454.5 620.5,455.5 620.5,456.5C 617.167,456.5 613.833,456.5 610.5,456.5C 610.5,455.5 610.5,454.5 610.5,453.5 Z"/></g>
<g><path style="opacity:1" fill="#784e7f" d="M 823.5,455.5 C 827.477,460.32 831.31,465.32 835,470.5C 838.252,476.589 840.918,482.922 843,489.5C 847.707,510.241 850.374,531.241 851,552.5C 852.323,601.558 851.323,650.558 848,699.5C 845.34,733.818 839.507,767.485 830.5,800.5C 814.325,800.83 798.325,800.496 782.5,799.5C 789.143,790.202 793.643,779.869 796,768.5C 799.815,750.007 802.648,731.341 804.5,712.5C 807.571,661.58 801.571,611.913 786.5,563.5C 786.167,562.167 785.833,560.833 785.5,559.5C 779.179,542.752 776.345,525.419 777,507.5C 777.987,492.203 783.82,479.203 794.5,468.5C 795.5,468.167 796.167,467.5 796.5,466.5C 804.716,461.09 813.716,457.423 823.5,455.5 Z"/></g>
<g><path style="opacity:1" fill="#efeef0" d="M 448.5,460.5 C 454.167,460.5 459.833,460.5 465.5,460.5C 465.5,461.5 465.5,462.5 465.5,463.5C 459.833,463.5 454.167,463.5 448.5,463.5C 448.5,462.5 448.5,461.5 448.5,460.5 Z"/></g>
<g><path style="opacity:1" fill="#eeeeef" d="M 469.5,460.5 C 475.167,460.5 480.833,460.5 486.5,460.5C 486.5,461.5 486.5,462.5 486.5,463.5C 480.833,463.5 475.167,463.5 469.5,463.5C 469.5,462.5 469.5,461.5 469.5,460.5 Z"/></g>
<g><path style="opacity:1" fill="#f2f1f2" d="M 520.5,460.5 C 521.694,461.272 522.694,462.272 523.5,463.5C 512.5,463.5 501.5,463.5 490.5,463.5C 490.5,462.5 490.5,461.5 490.5,460.5C 500.5,460.5 510.5,460.5 520.5,460.5 Z"/></g>
<g><path style="opacity:1" fill="#eff1f3" d="M 665.5,460.5 C 667.833,460.5 670.167,460.5 672.5,460.5C 672.5,461.5 672.5,462.5 672.5,463.5C 670.167,463.5 667.833,463.5 665.5,463.5C 665.5,462.5 665.5,461.5 665.5,460.5 Z"/></g>
<g><path style="opacity:1" fill="#f2f3f5" d="M 684.5,460.5 C 690.5,460.5 696.5,460.5 702.5,460.5C 702.5,461.5 702.5,462.5 702.5,463.5C 696.5,463.5 690.5,463.5 684.5,463.5C 684.5,462.5 684.5,461.5 684.5,460.5 Z"/></g>
<g><path style="opacity:1" fill="#f2f3f5" d="M 704.5,460.5 C 705.833,460.5 707.167,460.5 708.5,460.5C 708.5,461.5 708.5,462.5 708.5,463.5C 707.167,463.5 705.833,463.5 704.5,463.5C 704.5,462.5 704.5,461.5 704.5,460.5 Z"/></g>
<g><path style="opacity:1" fill="#dee1e6" d="M 674.5,460.5 C 677.167,460.5 679.833,460.5 682.5,460.5C 682.5,461.5 682.5,462.5 682.5,463.5C 679.833,463.5 677.167,463.5 674.5,463.5C 674.5,462.5 674.5,461.5 674.5,460.5 Z"/></g>
<g><path style="opacity:1" fill="#f0f1f4" d="M 610.5,463.5 C 613.833,463.5 617.167,463.5 620.5,463.5C 620.5,464.5 620.5,465.5 620.5,466.5C 617.167,466.5 613.833,466.5 610.5,466.5C 610.5,465.5 610.5,464.5 610.5,463.5 Z"/></g>
<g><path style="opacity:1" fill="#dcdcde" d="M 355.5,463.5 C 359.167,463.5 362.833,463.5 366.5,463.5C 366.5,464.5 366.5,465.5 366.5,466.5C 362.833,466.5 359.167,466.5 355.5,466.5C 355.5,465.5 355.5,464.5 355.5,463.5 Z"/></g>
<g><path style="opacity:1" fill="#0999ab" d="M 417.5,466.5 C 422.833,466.5 428.167,466.5 433.5,466.5C 433.5,467.833 433.5,469.167 433.5,470.5C 428.167,470.5 422.833,470.5 417.5,470.5C 417.5,469.167 417.5,467.833 417.5,466.5 Z"/></g>
<g><path style="opacity:1" fill="#0a9cb0" d="M 650.5,466.5 C 652.833,466.5 655.167,466.5 657.5,466.5C 657.5,467.833 657.5,469.167 657.5,470.5C 655.167,470.5 652.833,470.5 650.5,470.5C 650.5,469.167 650.5,467.833 650.5,466.5 Z"/></g>
<g><path style="opacity:1" fill="#f4f4f4" d="M 355.5,473.5 C 359.167,473.5 362.833,473.5 366.5,473.5C 366.5,474.5 366.5,475.5 366.5,476.5C 362.833,476.5 359.167,476.5 355.5,476.5C 355.5,475.5 355.5,474.5 355.5,473.5 Z"/></g>
<g><path style="opacity:1" fill="#f7f8f9" d="M 610.5,473.5 C 613.833,473.5 617.167,473.5 620.5,473.5C 620.5,474.5 620.5,475.5 620.5,476.5C 617.167,476.5 613.833,476.5 610.5,476.5C 610.5,475.5 610.5,474.5 610.5,473.5 Z"/></g>
<g><path style="opacity:1" fill="#04aec0" d="M 418.5,477.5 C 425.833,477.5 433.167,477.5 440.5,477.5C 440.5,478.5 440.5,479.5 440.5,480.5C 433.167,480.5 425.833,480.5 418.5,480.5C 418.5,479.5 418.5,478.5 418.5,477.5 Z"/></g>
<g><path style="opacity:1" fill="#039ddf" d="M 444.5,477.5 C 446.833,477.5 449.167,477.5 451.5,477.5C 451.5,478.5 451.5,479.5 451.5,480.5C 449.167,480.5 446.833,480.5 444.5,480.5C 444.5,479.5 444.5,478.5 444.5,477.5 Z"/></g>
<g><path style="opacity:1" fill="#04afc1" d="M 651.5,477.5 C 654.833,477.5 658.167,477.5 661.5,477.5C 661.5,478.5 661.5,479.5 661.5,480.5C 658.167,480.5 654.833,480.5 651.5,480.5C 651.5,479.5 651.5,478.5 651.5,477.5 Z"/></g>
<g><path style="opacity:1" fill="#f4f4f4" d="M 355.5,483.5 C 359.167,483.5 362.833,483.5 366.5,483.5C 366.5,484.5 366.5,485.5 366.5,486.5C 362.833,486.5 359.167,486.5 355.5,486.5C 355.5,485.5 355.5,484.5 355.5,483.5 Z"/></g>
<g><path style="opacity:1" fill="#f7f8f9" d="M 610.5,483.5 C 613.833,483.5 617.167,483.5 620.5,483.5C 620.5,484.5 620.5,485.5 620.5,486.5C 617.167,486.5 613.833,486.5 610.5,486.5C 610.5,485.5 610.5,484.5 610.5,483.5 Z"/></g>
<g><path style="opacity:1" fill="#1a1a26" d="M 615.5,492.5 C 618.5,492.5 621.5,492.5 624.5,492.5C 625.167,492.5 625.833,492.5 626.5,492.5C 655.5,492.5 684.5,492.5 713.5,492.5C 713.167,495.167 712.833,497.833 712.5,500.5C 684.726,502.478 656.726,503.145 628.5,502.5C 623.587,499.882 619.254,496.548 615.5,492.5 Z"/></g>
<g><path style="opacity:1" fill="#3e3f68" d="M 712.5,500.5 C 711.493,506.628 710.493,512.628 709.5,518.5C 691.167,518.5 672.833,518.5 654.5,518.5C 645.156,514.167 636.489,508.833 628.5,502.5C 656.726,503.145 684.726,502.478 712.5,500.5 Z"/></g>
<g><path style="opacity:0.999" fill="#2d2c4e" d="M 491.5,517.5 C 494.147,518.073 496.813,518.74 499.5,519.5C 494.959,539.752 490.959,560.085 487.5,580.5C 503.244,580.183 518.911,580.516 534.5,581.5C 535.752,583.339 535.752,585.172 534.5,587C 517.503,587.5 500.503,587.667 483.5,587.5C 482.5,586.833 481.5,586.167 480.5,585.5C 479.42,582.257 479.253,578.924 480,575.5C 483.943,556.509 487.776,537.509 491.5,518.5C 491.5,518.167 491.5,517.833 491.5,517.5 Z"/></g>
<g><path style="opacity:0.999" fill="#f5f4f2" d="M 654.5,518.5 C 672.833,518.5 691.167,518.5 709.5,518.5C 709.122,523.58 708.455,528.58 707.5,533.5C 704.5,533.5 701.5,533.5 698.5,533.5C 698.553,527.657 695.553,524.657 689.5,524.5C 686.209,524.076 683.542,525.076 681.5,527.5C 683.201,528.835 684.868,530.168 686.5,531.5C 678.673,529.592 671.007,527.092 663.5,524C 660.328,522.303 657.328,520.47 654.5,518.5 Z"/></g>
<g><path style="opacity:0.502" fill="#d1c2ad" d="M 698.5,533.5 C 697.167,533.5 696.5,534.167 696.5,535.5C 693.242,533.959 689.909,532.625 686.5,531.5C 684.868,530.168 683.201,528.835 681.5,527.5C 683.542,525.076 686.209,524.076 689.5,524.5C 695.553,524.657 698.553,527.657 698.5,533.5 Z"/></g>
<g><path style="opacity:0.998" fill="#2d2e40" d="M 698.5,533.5 C 701.5,533.5 704.5,533.5 707.5,533.5C 714.841,533.334 722.174,533.5 729.5,534C 730.938,534.219 732.271,534.719 733.5,535.5C 721.006,536.825 708.673,536.825 696.5,535.5C 696.5,534.167 697.167,533.5 698.5,533.5 Z"/></g>
<g><path style="opacity:1" fill="#d9b778" d="M 786.5,563.5 C 801.571,611.913 807.571,661.58 804.5,712.5C 799.913,708.372 794.58,705.539 788.5,704C 770.569,702.974 752.903,700.308 735.5,696C 729.941,693.996 724.941,691.163 720.5,687.5C 720.5,686.833 720.5,686.167 720.5,685.5C 722.455,683.174 724.455,680.841 726.5,678.5C 730.761,675.842 735.094,673.175 739.5,670.5C 747.044,660.018 752.378,648.518 755.5,636C 750.772,638.57 745.772,640.903 740.5,643C 733.167,643.667 725.833,643.667 718.5,643C 713.203,641.605 708.037,639.772 703,637.5C 699.444,635.823 696.277,633.823 693.5,631.5C 701.79,635.468 710.456,638.635 719.5,641C 734.259,644.315 746.926,640.815 757.5,630.5C 763.62,625.205 768.453,618.872 772,611.5C 777.148,595.553 781.981,579.553 786.5,563.5 Z"/></g>
<g><path style="opacity:0.175" fill="#716874" d="M 584.5,561.5 C 585.167,561.5 585.5,561.833 585.5,562.5C 585.5,563.5 585.5,564.5 585.5,565.5C 584.529,569.9 584.529,574.233 585.5,578.5C 585.5,579.167 585.5,579.833 585.5,580.5C 584.504,580.586 583.671,580.252 583,579.5C 582.376,573.405 582.876,567.405 584.5,561.5 Z"/></g>
<g><path style="opacity:0.227" fill="#ac967d" d="M 585.5,562.5 C 590.167,565.833 594.833,569.167 599.5,572.5C 599.281,573.675 599.614,574.675 600.5,575.5C 602.941,576.709 604.941,578.376 606.5,580.5C 599.5,580.5 592.5,580.5 585.5,580.5C 585.5,579.833 585.5,579.167 585.5,578.5C 590.179,578.666 594.845,578.499 599.5,578C 595.728,572.648 591.061,568.482 585.5,565.5C 585.5,564.5 585.5,563.5 585.5,562.5 Z"/></g>
<g><path style="opacity:0.999" fill="#535585" d="M 608.5,581.5 C 612.372,583.597 616.039,585.931 619.5,588.5C 574.167,588.5 528.833,588.5 483.5,588.5C 483.5,588.167 483.5,587.833 483.5,587.5C 500.503,587.667 517.503,587.5 534.5,587C 535.752,585.172 535.752,583.339 534.5,581.5C 559.129,580.526 583.795,580.526 608.5,581.5 Z"/></g>
<g><path style="opacity:0.997" fill="#2c2d40" d="M 599.5,572.5 C 617.266,583.751 634.933,595.251 652.5,607C 659.281,610.049 665.614,613.549 671.5,617.5C 669.784,617.371 668.117,617.038 666.5,616.5C 661.252,614.748 656.252,612.415 651.5,609.5C 640.833,602.5 630.167,595.5 619.5,588.5C 616.039,585.931 612.372,583.597 608.5,581.5C 608.158,580.662 607.492,580.328 606.5,580.5C 604.941,578.376 602.941,576.709 600.5,575.5C 599.614,574.675 599.281,573.675 599.5,572.5 Z"/></g>
<g><path style="opacity:1" fill="#2e2f41" d="M 785.5,559.5 C 785.833,560.833 786.167,562.167 786.5,563.5C 781.981,579.553 777.148,595.553 772,611.5C 768.453,618.872 763.62,625.205 757.5,630.5C 756.508,630.672 755.842,630.338 755.5,629.5C 761.898,623.038 767.065,615.705 771,607.5C 774.667,594.167 778.333,580.833 782,567.5C 782.875,564.599 784.042,561.932 785.5,559.5 Z"/></g>
<g><path style="opacity:0.131" fill="#8d6b66" d="M 478.5,585.5 C 479.167,585.5 479.833,585.5 480.5,585.5C 481.5,586.167 482.5,586.833 483.5,587.5C 483.5,587.833 483.5,588.167 483.5,588.5C 462.34,589.497 441.007,589.831 419.5,589.5C 336.833,589.5 254.167,589.5 171.5,589.5C 171.5,598.5 171.5,607.5 171.5,616.5C 171.167,616.5 170.833,616.5 170.5,616.5C 170.182,606.917 170.515,597.417 171.5,588C 273.523,587.939 375.523,587.939 477.5,588C 478.252,587.329 478.586,586.496 478.5,585.5 Z"/></g>
<g><path style="opacity:0.125" fill="#9a7984" d="M 1040.5,585.5 C 1040.8,586.15 1041.14,586.817 1041.5,587.5C 1063.88,588.394 1086.21,588.727 1108.5,588.5C 1108.5,595.5 1108.5,602.5 1108.5,609.5C 1108.17,609.5 1107.83,609.5 1107.5,609.5C 1107.67,603.491 1107.5,597.491 1107,591.5C 1106.5,591 1106,590.5 1105.5,590C 1083.17,589.5 1060.84,589.333 1038.5,589.5C 1038.99,588.005 1039.66,586.671 1040.5,585.5 Z"/></g>
<g><path style="opacity:0.747" fill="#a9735a" d="M 419.5,589.5 C 419.5,589.833 419.5,590.167 419.5,590.5C 337.167,590.5 254.833,590.5 172.5,590.5C 172.5,599.167 172.5,607.833 172.5,616.5C 172.167,616.5 171.833,616.5 171.5,616.5C 171.5,607.5 171.5,598.5 171.5,589.5C 254.167,589.5 336.833,589.5 419.5,589.5 Z"/></g>
<g><path style="opacity:1" fill="#e4c1a2" d="M 483.5,588.5 C 528.833,588.5 574.167,588.5 619.5,588.5C 630.167,595.5 640.833,602.5 651.5,609.5C 651.376,611.582 650.376,613.082 648.5,614C 572.167,614.5 495.834,614.667 419.5,614.5C 419.5,606.5 419.5,598.5 419.5,590.5C 419.5,590.167 419.5,589.833 419.5,589.5C 441.007,589.831 462.34,589.497 483.5,588.5 Z"/></g>
<g><path style="opacity:1" fill="#cb8f6d" d="M 419.5,590.5 C 419.5,598.5 419.5,606.5 419.5,614.5C 419.5,614.833 419.5,615.167 419.5,615.5C 419.5,615.833 419.5,616.167 419.5,616.5C 411.5,616.5 403.5,616.5 395.5,616.5C 328.833,616.5 262.167,616.5 195.5,616.5C 187.833,616.5 180.167,616.5 172.5,616.5C 172.5,607.833 172.5,599.167 172.5,590.5C 254.833,590.5 337.167,590.5 419.5,590.5 Z"/></g>
<g><path style="opacity:1" fill="#e2be9f" d="M 1038.5,589.5 C 1060.84,589.333 1083.17,589.5 1105.5,590C 1106,590.5 1106.5,591 1107,591.5C 1107.5,597.491 1107.67,603.491 1107.5,609.5C 1107.5,611.833 1107.5,614.167 1107.5,616.5C 1099.5,616.5 1091.5,616.5 1083.5,616.5C 1068.01,615.504 1052.34,615.17 1036.5,615.5C 1037.6,606.872 1038.27,598.205 1038.5,589.5 Z"/></g>
<g><path style="opacity:1" fill="#313052" d="M 170.5,616.5 C 170.833,616.5 171.167,616.5 171.5,616.5C 171.833,616.5 172.167,616.5 172.5,616.5C 180.167,616.5 187.833,616.5 195.5,616.5C 194.364,621.985 194.364,627.319 195.5,632.5C 194.412,641.799 193.746,651.133 193.5,660.5C 192.5,660.5 191.5,660.5 190.5,660.5C 189.772,673.576 188.438,686.576 186.5,699.5C 195,699.833 203.5,700.167 212,700.5C 270.168,699.947 328.334,699.281 386.5,698.5C 388.749,677.014 391.083,655.514 393.5,634C 393.492,632.293 393.158,630.793 392.5,629.5C 393.11,628.609 393.443,627.609 393.5,626.5C 394.434,623.344 395.101,620.011 395.5,616.5C 403.5,616.5 411.5,616.5 419.5,616.5C 416.107,644.087 413.607,671.753 412,699.5C 412.278,698.584 412.778,697.918 413.5,697.5C 402.844,800.349 392.678,903.349 383,1006.5C 382.722,1007.42 382.222,1008.08 381.5,1008.5C 378.698,1028.19 376.032,1050.53 373.5,1075.5C 372.766,1076.88 372.099,1078.38 371.5,1080C 364.909,1082.14 358.243,1083.98 351.5,1085.5C 351.167,1084 350.833,1082.5 350.5,1081C 351.886,1072.54 352.386,1064.04 352,1055.5C 350.942,1066.53 349.608,1077.53 348,1088.5C 346.519,1089.47 345.685,1090.8 345.5,1092.5C 344.833,1093.5 344.167,1094.5 343.5,1095.5C 343.186,1091.61 344.353,1088.27 347,1085.5C 349.188,1066.9 351.354,1048.24 353.5,1029.5C 355.13,1019.18 356.463,1008.68 357.5,998C 357.333,996.167 357.167,994.333 357,992.5C 356.617,991.944 356.117,991.611 355.5,991.5C 355.461,990.244 355.961,989.244 357,988.5C 364.171,913.613 371.338,838.78 378.5,764C 379.66,752.731 381.327,741.564 383.5,730.5C 383.21,728.956 382.544,727.623 381.5,726.5C 316.833,725.167 252.167,725.167 187.5,726.5C 185.898,729.237 185.064,732.237 185,735.5C 180.423,779.623 176.423,823.957 173,868.5C 170.115,888.266 167.615,907.933 165.5,927.5C 160.096,976.492 154.763,1026.16 149.5,1076.5C 147.794,1083.93 146.794,1091.59 146.5,1099.5C 139.5,1099.5 132.5,1099.5 125.5,1099.5C 127.353,1081.2 128.52,1062.87 129,1044.5C 127.433,1061.68 125.6,1078.68 123.5,1095.5C 123.782,1071.51 125.949,1047.85 130,1024.5C 131.752,1002.82 133.585,981.155 135.5,959.5C 137.197,957.695 138.03,955.361 138,952.5C 139.055,942.177 139.888,931.843 140.5,921.5C 142.701,897.217 144.535,872.884 146,848.5C 147.045,839.466 148.378,830.466 150,821.5C 153.339,778.428 157.173,735.428 161.5,692.5C 162.693,692.97 163.36,693.97 163.5,695.5C 162.621,698.812 162.454,702.145 163,705.5C 166.493,678.748 169.326,651.915 171.5,625C 171.333,623.833 171.167,622.667 171,621.5C 170.104,630.015 168.937,638.348 167.5,646.5C 167.095,636.24 168.095,626.24 170.5,616.5 Z M 393.5,626.5 C 393.443,627.609 393.11,628.609 392.5,629.5C 389.811,652.28 387.144,675.113 384.5,698C 320.928,698.47 257.428,698.637 194,698.5C 191.7,698.322 189.866,697.322 188.5,695.5C 189.994,683.857 191.661,672.19 193.5,660.5C 193.746,651.133 194.412,641.799 195.5,632.5C 194.989,627.304 195.989,622.47 198.5,618C 263.528,617.177 328.528,617.344 393.5,618.5C 393.5,621.167 393.5,623.833 393.5,626.5 Z"/></g>
<g><path style="opacity:0.204" fill="#836561" d="M 195.5,616.5 C 262.167,616.5 328.833,616.5 395.5,616.5C 395.101,620.011 394.434,623.344 393.5,626.5C 393.5,623.833 393.5,621.167 393.5,618.5C 328.528,617.344 263.528,617.177 198.5,618C 195.989,622.47 194.989,627.304 195.5,632.5C 194.364,627.319 194.364,621.985 195.5,616.5 Z"/></g>
<g><path style="opacity:0.135" fill="#af9383" d="M 419.5,616.5 C 419.5,616.167 419.5,615.833 419.5,615.5C 490.668,615.82 561.668,616.487 632.5,617.5C 570.167,617.5 507.833,617.5 445.5,617.5C 437.016,616.507 428.349,616.174 419.5,616.5 Z"/></g>
<g><path style="opacity:0.143" fill="#906c78" d="M 1036.5,615.5 C 1052.34,615.17 1068.01,615.504 1083.5,616.5C 1081.59,616.216 1079.92,616.549 1078.5,617.5C 1065.16,617.333 1051.83,617.5 1038.5,618C 1038.01,620.209 1037.01,622.042 1035.5,623.5C 1035.83,620.833 1036.17,618.167 1036.5,615.5 Z"/></g>
<g><path style="opacity:1" fill="#313053" d="M 1083.5,616.5 C 1091.5,616.5 1099.5,616.5 1107.5,616.5C 1108.48,620.298 1108.82,624.298 1108.5,628.5C 1111.4,669.266 1115.24,709.932 1120,750.5C 1120.17,748.5 1120.33,746.5 1120.5,744.5C 1119.18,736.555 1118.51,728.555 1118.5,720.5C 1120.48,729.826 1121.98,739.492 1123,749.5C 1131.07,841.188 1139.74,932.854 1149,1024.5C 1153.17,1049.79 1155.33,1075.46 1155.5,1101.5C 1147.16,1101.67 1138.83,1101.5 1130.5,1101C 1130,1100.5 1129.5,1100 1129,1099.5C 1128.61,1090.48 1127.94,1081.48 1127,1072.5C 1125.96,1071.76 1125.46,1070.76 1125.5,1069.5C 1126.5,1069.5 1127.5,1069.5 1128.5,1069.5C 1116.98,954.516 1105.65,839.516 1094.5,724.5C 1071.5,724.5 1048.5,724.5 1025.5,724.5C 1026.74,716.217 1027.41,707.884 1027.5,699.5C 1048.83,699.5 1070.17,699.5 1091.5,699.5C 1089.24,671.79 1086.57,644.124 1083.5,616.5 Z"/></g>
<g><path style="opacity:0.294" fill="#c09f7c" d="M 651.5,609.5 C 656.252,612.415 661.252,614.748 666.5,616.5C 675.847,620.943 684.847,625.943 693.5,631.5C 683.404,627.287 673.404,622.787 663.5,618C 653.172,617.5 642.839,617.334 632.5,617.5C 561.668,616.487 490.668,615.82 419.5,615.5C 419.5,615.167 419.5,614.833 419.5,614.5C 495.834,614.667 572.167,614.5 648.5,614C 650.376,613.082 651.376,611.582 651.5,609.5 Z"/></g>
<g><path style="opacity:0.922" fill="#433a39" d="M 666.5,616.5 C 668.117,617.038 669.784,617.371 671.5,617.5C 682.537,622.006 693.204,627.173 703.5,633C 709.18,635.377 715.013,637.211 721,638.5C 734.046,641.128 745.546,638.128 755.5,629.5C 755.842,630.338 756.508,630.672 757.5,630.5C 746.926,640.815 734.259,644.315 719.5,641C 710.456,638.635 701.79,635.468 693.5,631.5C 684.847,625.943 675.847,620.943 666.5,616.5 Z"/></g>
<g><path style="opacity:0.082" fill="#554565" d="M 1107.5,609.5 C 1107.83,609.5 1108.17,609.5 1108.5,609.5C 1110.24,622.136 1111.74,634.802 1113,647.5C 1113.97,660.497 1114.8,673.497 1115.5,686.5C 1112.86,667.205 1110.53,647.871 1108.5,628.5C 1108.82,624.298 1108.48,620.298 1107.5,616.5C 1107.5,614.167 1107.5,611.833 1107.5,609.5 Z"/></g>
<g><path style="opacity:0.035" fill="#433957" d="M 166.5,647.5 C 167.162,649.304 167.495,651.304 167.5,653.5C 166.467,664.684 165.133,675.684 163.5,686.5C 164.055,673.318 165.055,660.318 166.5,647.5 Z"/></g>
<g><path style="opacity:0.802" fill="#18173b" d="M 161.5,692.5 C 162.72,690.718 163.386,688.718 163.5,686.5C 165.133,675.684 166.467,664.684 167.5,653.5C 167.495,651.304 167.162,649.304 166.5,647.5C 166.5,646.833 166.833,646.5 167.5,646.5C 168.937,638.348 170.104,630.015 171,621.5C 171.167,622.667 171.333,623.833 171.5,625C 169.326,651.915 166.493,678.748 163,705.5C 162.454,702.145 162.621,698.812 163.5,695.5C 163.36,693.97 162.693,692.97 161.5,692.5 Z"/></g>
<g><path style="opacity:0.142" fill="#584568" d="M 1078.5,617.5 C 1079.92,616.549 1081.59,616.216 1083.5,616.5C 1086.57,644.124 1089.24,671.79 1091.5,699.5C 1070.17,699.5 1048.83,699.5 1027.5,699.5C 1028.64,689.103 1029.98,679.436 1031.5,670.5C 1031,679.826 1030.67,689.159 1030.5,698.5C 1049.72,697.722 1069.06,697.722 1088.5,698.5C 1086.63,673.569 1084.8,648.569 1083,623.5C 1081.88,622.051 1081.22,620.384 1081,618.5C 1080.33,617.748 1079.5,617.414 1078.5,617.5 Z"/></g>
<g><path style="opacity:0.106" fill="#4d455c" d="M 419.5,616.5 C 428.349,616.174 437.016,616.507 445.5,617.5C 437.248,617.184 429.081,617.518 421,618.5C 419.279,632.597 417.612,646.597 416,660.5C 415.111,672.834 414.278,685.168 413.5,697.5C 412.778,697.918 412.278,698.584 412,699.5C 413.607,671.753 416.107,644.087 419.5,616.5 Z"/></g>
<g><path style="opacity:1" fill="#303664" d="M 720.5,687.5 C 724.941,691.163 729.941,693.996 735.5,696C 752.903,700.308 770.569,702.974 788.5,704C 794.58,705.539 799.913,708.372 804.5,712.5C 802.648,731.341 799.815,750.007 796,768.5C 793.643,779.869 789.143,790.202 782.5,799.5C 733.832,799.333 685.166,799.5 636.5,800C 633.006,801.217 629.673,802.717 626.5,804.5C 627.262,804.911 628.262,805.077 629.5,805C 626.609,807.675 624.443,810.842 623,814.5C 622.333,825.167 622.333,835.833 623,846.5C 624.722,849.279 625.889,852.279 626.5,855.5C 625.557,857.882 624.223,860.049 622.5,862C 619.86,870.748 616.86,879.248 613.5,887.5C 614.633,879.944 616.467,872.611 619,865.5C 619.917,861.836 621.75,858.67 624.5,856C 623.572,854.024 622.405,852.191 621,850.5C 620.921,840.593 620.087,830.76 618.5,821C 619.349,815.156 621.349,809.823 624.5,805C 623.451,804.508 622.451,804.674 621.5,805.5C 578.399,884.105 535.565,963.105 493,1042.5C 491.67,1046.01 489.17,1047.67 485.5,1047.5C 485.5,1050.83 485.5,1054.17 485.5,1057.5C 484.691,1055.71 484.191,1053.71 484,1051.5C 483.302,1050.31 482.469,1049.31 481.5,1048.5C 483.176,1047.82 483.843,1046.48 483.5,1044.5C 471.26,1042.53 459.593,1038.86 448.5,1033.5C 447.22,1032.07 445.553,1031.4 443.5,1031.5C 441.94,1031.48 440.44,1031.15 439,1030.5C 433.181,1027.23 427.347,1024.06 421.5,1021C 419.434,1019.41 417.768,1017.58 416.5,1015.5C 421.574,999.61 427.241,983.943 433.5,968.5C 437.867,952.025 442.867,935.692 448.5,919.5C 456.466,899.523 464.132,879.356 471.5,859C 471.836,857.97 472.503,857.47 473.5,857.5C 462.271,889.019 450.938,920.519 439.5,952C 440.01,953.826 440.844,953.993 442,952.5C 462.073,897.007 482.739,841.674 504,786.5C 508.87,769.222 514.537,752.222 521,735.5C 530.11,713.718 546.277,700.885 569.5,697C 619.883,694.725 670.216,691.559 720.5,687.5 Z"/></g>
<g><path style="opacity:0.114" fill="#494968" d="M 726.5,678.5 C 724.455,680.841 722.455,683.174 720.5,685.5C 672.573,689.187 624.573,691.687 576.5,693C 569.871,693.947 563.371,695.447 557,697.5C 555.97,697.164 555.47,696.497 555.5,695.5C 563.029,693.409 570.695,691.909 578.5,691C 625.16,689.751 671.827,687.084 718.5,683C 721.08,681.214 723.747,679.714 726.5,678.5 Z"/></g>
<g><path style="opacity:0.102" fill="#3e3b58" d="M 392.5,629.5 C 393.158,630.793 393.492,632.293 393.5,634C 391.083,655.514 388.749,677.014 386.5,698.5C 328.334,699.281 270.168,699.947 212,700.5C 203.5,700.167 195,699.833 186.5,699.5C 188.438,686.576 189.772,673.576 190.5,660.5C 191.5,660.5 192.5,660.5 193.5,660.5C 191.661,672.19 189.994,683.857 188.5,695.5C 189.866,697.322 191.7,698.322 194,698.5C 257.428,698.637 320.928,698.47 384.5,698C 387.144,675.113 389.811,652.28 392.5,629.5 Z"/></g>
<g><path style="opacity:0.902" fill="#261f46" d="M 1108.5,628.5 C 1110.53,647.871 1112.86,667.205 1115.5,686.5C 1117.97,697.666 1118.97,708.999 1118.5,720.5C 1118.51,728.555 1119.18,736.555 1120.5,744.5C 1120.33,746.5 1120.17,748.5 1120,750.5C 1115.24,709.932 1111.4,669.266 1108.5,628.5 Z"/></g>
<g><path style="opacity:0.163" fill="#534469" d="M 1025.5,724.5 C 1048.5,724.5 1071.5,724.5 1094.5,724.5C 1105.65,839.516 1116.98,954.516 1128.5,1069.5C 1127.5,1069.5 1126.5,1069.5 1125.5,1069.5C 1125.06,1057.99 1124.4,1046.49 1123.5,1035C 1113.37,932.634 1103.04,830.134 1092.5,727.5C 1081.82,726.189 1070.99,725.523 1060,725.5C 1049.5,725.833 1039,726.167 1028.5,726.5C 1027.96,728.261 1026.96,729.594 1025.5,730.5C 1025.5,728.5 1025.5,726.5 1025.5,724.5 Z"/></g>
<g><path style="opacity:0.231" fill="#3a3a5f" d="M 554.5,695.5 C 554.719,696.675 554.386,697.675 553.5,698.5C 537.47,705.696 525.97,717.363 519,733.5C 511.57,752.878 504.903,772.544 499,792.5C 490.936,814.504 482.436,836.17 473.5,857.5C 474.017,853.778 474.85,850.112 476,846.5C 481.723,831.839 487.556,817.172 493.5,802.5C 500.52,780.741 507.687,759.074 515,737.5C 518.595,729.342 522.929,721.675 528,714.5C 535.901,706.751 544.734,700.418 554.5,695.5 Z"/></g>
<g><path style="opacity:0.984" fill="#161b36" d="M 720.5,685.5 C 720.5,686.167 720.5,686.833 720.5,687.5C 670.216,691.559 619.883,694.725 569.5,697C 546.277,700.885 530.11,713.718 521,735.5C 514.537,752.222 508.87,769.222 504,786.5C 482.739,841.674 462.073,897.007 442,952.5C 440.844,953.993 440.01,953.826 439.5,952C 450.938,920.519 462.271,889.019 473.5,857.5C 482.436,836.17 490.936,814.504 499,792.5C 504.903,772.544 511.57,752.878 519,733.5C 525.97,717.363 537.47,705.696 553.5,698.5C 554.386,697.675 554.719,696.675 554.5,695.5C 554.833,695.5 555.167,695.5 555.5,695.5C 555.47,696.497 555.97,697.164 557,697.5C 563.371,695.447 569.871,693.947 576.5,693C 624.573,691.687 672.573,689.187 720.5,685.5 Z"/></g>
<g><path style="opacity:1" fill="#232649" d="M 626.5,855.5 C 629.839,858.668 633.839,860.501 638.5,861C 668.165,861.5 697.831,861.667 727.5,861.5C 705.777,908.45 684.443,955.617 663.5,1003C 663.683,1004.68 664.35,1004.85 665.5,1003.5C 665.263,1006.65 664.43,1009.65 663,1012.5C 658.071,1021.31 653.905,1030.48 650.5,1040C 649.419,1041.37 648.585,1042.87 648,1044.5C 647.329,1045.25 646.496,1045.59 645.5,1045.5C 643.833,1045.5 642.167,1045.5 640.5,1045.5C 629.066,1042.47 617.733,1038.8 606.5,1034.5C 600.807,1030.99 594.807,1027.99 588.5,1025.5C 586.821,1025.11 585.154,1024.61 583.5,1024C 580.063,1022.19 576.897,1020.03 574,1017.5C 574.325,1011.51 574.992,1005.51 576,999.5C 588.242,962.774 600.076,925.941 611.5,889C 611.836,887.97 612.503,887.47 613.5,887.5C 616.86,879.248 619.86,870.748 622.5,862C 624.223,860.049 625.557,857.882 626.5,855.5 Z"/></g>
<g><path style="opacity:0.694" fill="#4f2859" d="M 1023.5,807.5 C 1023.67,814.175 1023.5,820.842 1023,827.5C 1021.7,832.835 1020.87,838.335 1020.5,844C 1020.39,845.681 1019.73,846.848 1018.5,847.5C 1015.36,855.132 1009.7,859.632 1001.5,861C 970.502,861.5 939.502,861.667 908.5,861.5C 908.167,861.5 907.833,861.5 907.5,861.5C 939.484,859.672 971.818,858.839 1004.5,859C 1010.67,856.833 1014.83,852.667 1017,846.5C 1017.79,839.798 1018.79,833.132 1020,826.5C 1020.17,813.154 1020.67,799.821 1021.5,786.5C 1022.17,793.655 1022.83,800.655 1023.5,807.5 Z"/></g>
<g><path style="opacity:0.412" fill="#482155" d="M 805.5,861.5 C 780.167,861.5 754.833,861.5 729.5,861.5C 729.167,861.5 728.833,861.5 728.5,861.5C 728.611,860.883 728.944,860.383 729.5,860C 742.167,859.833 754.833,859.667 767.5,859.5C 780.518,859.501 793.185,860.168 805.5,861.5 Z"/></g>
<g><path style="opacity:0.071" fill="#443251" d="M 729.5,861.5 C 754.833,861.5 780.167,861.5 805.5,861.5C 805.975,864.082 805.308,866.082 803.5,867.5C 803.5,866.167 803.5,864.833 803.5,863.5C 787.152,863.74 770.819,863.407 754.5,862.5C 746.481,862.945 738.481,863.612 730.5,864.5C 725.78,873.94 721.113,883.273 716.5,892.5C 715.957,892.44 715.624,892.107 715.5,891.5C 720.002,881.281 724.668,871.281 729.5,861.5 Z"/></g>
<g><path style="opacity:1" fill="#6d85b3" d="M 806.5,861.5 C 810.167,861.5 813.833,861.5 817.5,861.5C 817.833,926.503 817.5,991.503 816.5,1056.5C 799.789,1070.89 783.122,1085.22 766.5,1099.5C 736.833,1099.5 707.167,1099.5 677.5,1099.5C 677.229,1097.62 677.896,1096.29 679.5,1095.5C 716.846,1083.77 754.179,1071.94 791.5,1060C 790.244,1059.58 789.577,1058.75 789.5,1057.5C 794.047,1055.86 798.714,1054.53 803.5,1053.5C 804.5,1053.5 805.5,1053.5 806.5,1053.5C 806.5,989.5 806.5,925.5 806.5,861.5 Z"/></g>
<g><path style="opacity:0.098" fill="#4a3654" d="M 1018.5,847.5 C 1018.65,851.769 1016.98,855.102 1013.5,857.5C 1009.83,860.168 1005.83,862.002 1001.5,863C 971.168,863.5 940.835,863.667 910.5,863.5C 912.915,886.391 914.582,909.391 915.5,932.5C 912.536,909.039 910.202,885.372 908.5,861.5C 939.502,861.667 970.502,861.5 1001.5,861C 1009.7,859.632 1015.36,855.132 1018.5,847.5 Z"/></g>
<g><path style="opacity:1" fill="#313053" d="M 907.5,861.5 C 907.833,861.5 908.167,861.5 908.5,861.5C 910.202,885.372 912.536,909.039 915.5,932.5C 916.537,934.655 917.203,936.988 917.5,939.5C 922.07,985.439 926.404,1031.44 930.5,1077.5C 929.47,1080.1 929.47,1082.77 930.5,1085.5C 930.167,1085.5 929.833,1085.5 929.5,1085.5C 921.319,1083.13 913.319,1080.46 905.5,1077.5C 904.735,1074.9 904.401,1072.24 904.5,1069.5C 898.613,1011.52 892.946,953.519 887.5,895.5C 886.127,884.218 885.127,872.885 884.5,861.5C 892.167,861.5 899.833,861.5 907.5,861.5 Z"/></g>
<g><path style="opacity:0.09" fill="#4f4669" d="M 887.5,895.5 C 892.946,953.519 898.613,1011.52 904.5,1069.5C 904.167,1069.5 903.833,1069.5 903.5,1069.5C 902.27,1066.77 901.604,1063.77 901.5,1060.5C 896.633,1006.31 891.3,952.314 885.5,898.5C 886.167,897.5 886.833,896.5 887.5,895.5 Z"/></g>
<g><path style="opacity:0.369" fill="#443d5f" d="M 140.5,921.5 C 139.888,931.843 139.055,942.177 138,952.5C 138.03,955.361 137.197,957.695 135.5,959.5C 137.043,947.236 138.21,934.903 139,922.5C 139.383,921.944 139.883,921.611 140.5,921.5 Z"/></g>
<g><path style="opacity:0.753" fill="#17173d" d="M 727.5,861.5 C 727.833,861.5 728.167,861.5 728.5,861.5C 728.833,861.5 729.167,861.5 729.5,861.5C 724.668,871.281 720.002,881.281 715.5,891.5C 715.624,892.107 715.957,892.44 716.5,892.5C 701.254,926.379 686.088,960.379 671,994.5C 669.434,997.752 667.601,1000.75 665.5,1003.5C 664.35,1004.85 663.683,1004.68 663.5,1003C 684.443,955.617 705.777,908.45 727.5,861.5 Z"/></g>
<g><path style="opacity:0.418" fill="#636e9c" d="M 805.5,861.5 C 805.833,861.5 806.167,861.5 806.5,861.5C 806.5,925.5 806.5,989.5 806.5,1053.5C 805.5,1053.5 804.5,1053.5 803.5,1053.5C 803.5,991.5 803.5,929.5 803.5,867.5C 805.308,866.082 805.975,864.082 805.5,861.5 Z"/></g>
<g><path style="opacity:0.189" fill="#676b94" d="M 830.5,861.5 C 831.309,863.292 831.809,865.292 832,867.5C 832.21,865.942 832.71,864.609 833.5,863.5C 833.171,927.238 833.504,990.905 834.5,1054.5C 833.167,1054.5 831.833,1054.5 830.5,1054.5C 830.5,990.167 830.5,925.833 830.5,861.5 Z"/></g>
<g><path style="opacity:0.224" fill="#494264" d="M 355.5,991.5 C 356.117,991.611 356.617,991.944 357,992.5C 357.167,994.333 357.333,996.167 357.5,998C 356.463,1008.68 355.13,1019.18 353.5,1029.5C 354.299,1016.84 354.966,1004.17 355.5,991.5 Z"/></g>
<g><path style="opacity:0.267" fill="#494566" d="M 381.5,1008.5 C 379.53,1031.08 377.696,1053.74 376,1076.5C 391.779,1072.52 407.446,1068.19 423,1063.5C 425.702,1061.29 428.202,1058.96 430.5,1056.5C 431.239,1056.37 431.906,1056.54 432.5,1057C 428.896,1061.95 424.229,1065.29 418.5,1067C 403.656,1070.6 388.989,1074.77 374.5,1079.5C 373.571,1078.31 373.238,1076.98 373.5,1075.5C 376.032,1050.53 378.698,1028.19 381.5,1008.5 Z"/></g>
<g><path style="opacity:1" fill="#ec9e96" d="M 448.5,1033.5 C 459.593,1038.86 471.26,1042.53 483.5,1044.5C 483.843,1046.48 483.176,1047.82 481.5,1048.5C 470.835,1047.17 460.169,1045.83 449.5,1044.5C 448.602,1043.84 447.602,1043.18 446.5,1042.5C 447.089,1039.36 447.756,1036.36 448.5,1033.5 Z"/></g>
<g><path style="opacity:1" fill="#eda096" d="M 606.5,1034.5 C 617.733,1038.8 629.066,1042.47 640.5,1045.5C 640.068,1046.71 639.401,1047.71 638.5,1048.5C 627.815,1047.3 617.148,1045.96 606.5,1044.5C 604.173,1041.33 604.173,1038 606.5,1034.5 Z"/></g>
<g><path style="opacity:0.29" fill="#4c4867" d="M 165.5,927.5 C 164.888,940.843 164.055,954.176 163,967.5C 157.349,1011.37 153.016,1055.37 150,1099.5C 149.5,1100 149,1100.5 148.5,1101C 139.99,1101.82 131.656,1101.66 123.5,1100.5C 131.5,1100.5 139.5,1100.5 147.5,1100.5C 148.218,1092.51 148.884,1084.51 149.5,1076.5C 154.763,1026.16 160.096,976.492 165.5,927.5 Z"/></g>
<g><path style="opacity:0.216" fill="#674c63" d="M 588.5,1025.5 C 594.807,1027.99 600.807,1030.99 606.5,1034.5C 604.173,1038 604.173,1041.33 606.5,1044.5C 604.801,1044.34 603.134,1044.51 601.5,1045C 598.236,1048.77 594.57,1051.94 590.5,1054.5C 593.034,1050.78 596.034,1047.45 599.5,1044.5C 600.609,1041.57 601.942,1038.74 603.5,1036C 598.311,1032.58 593.311,1029.08 588.5,1025.5 Z"/></g>
<g><path style="opacity:1" fill="#2a2e57" d="M 449.5,1044.5 C 460.169,1045.83 470.835,1047.17 481.5,1048.5C 482.469,1049.31 483.302,1050.31 484,1051.5C 484.191,1053.71 484.691,1055.71 485.5,1057.5C 487.738,1071.6 490.405,1085.6 493.5,1099.5C 444.167,1099.5 394.833,1099.5 345.5,1099.5C 345.5,1097.17 345.5,1094.83 345.5,1092.5C 345.685,1090.8 346.519,1089.47 348,1088.5C 349.608,1077.53 350.942,1066.53 352,1055.5C 352.386,1064.04 351.886,1072.54 350.5,1081C 350.833,1082.5 351.167,1084 351.5,1085.5C 358.243,1083.98 364.909,1082.14 371.5,1080C 372.099,1078.38 372.766,1076.88 373.5,1075.5C 373.238,1076.98 373.571,1078.31 374.5,1079.5C 388.989,1074.77 403.656,1070.6 418.5,1067C 424.229,1065.29 428.896,1061.95 432.5,1057C 431.906,1056.54 431.239,1056.37 430.5,1056.5C 430.5,1055.83 430.833,1055.5 431.5,1055.5C 432.93,1055.58 434.264,1055.25 435.5,1054.5C 439.157,1049.47 443.823,1046.14 449.5,1044.5 Z"/></g>
<g><path style="opacity:1" fill="#181736" d="M 606.5,1044.5 C 617.148,1045.96 627.815,1047.3 638.5,1048.5C 642.765,1064.24 646.432,1080.24 649.5,1096.5C 648.596,1097.21 648.263,1098.21 648.5,1099.5C 601.167,1099.5 553.833,1099.5 506.5,1099.5C 505.403,1094.76 506.736,1090.6 510.5,1087C 524.293,1082.11 538.293,1077.78 552.5,1074C 553.756,1073.58 554.423,1072.75 554.5,1071.5C 562.237,1068.72 570.237,1066.22 578.5,1064C 581.788,1059.91 585.788,1056.75 590.5,1054.5C 594.57,1051.94 598.236,1048.77 601.5,1045C 603.134,1044.51 604.801,1044.34 606.5,1044.5 Z"/></g>
<g><path style="opacity:0.255" fill="#725b71" d="M 443.5,1031.5 C 445.553,1031.4 447.22,1032.07 448.5,1033.5C 447.756,1036.36 447.089,1039.36 446.5,1042.5C 447.602,1043.18 448.602,1043.84 449.5,1044.5C 443.823,1046.14 439.157,1049.47 435.5,1054.5C 434.264,1055.25 432.93,1055.58 431.5,1055.5C 435.435,1051.34 439.602,1047.34 444,1043.5C 446.109,1039.33 445.942,1035.33 443.5,1031.5 Z"/></g>
<g><path style="opacity:1" fill="#7d9ac1" d="M 817.5,861.5 C 821.833,861.5 826.167,861.5 830.5,861.5C 830.5,925.833 830.5,990.167 830.5,1054.5C 831.833,1054.5 833.167,1054.5 834.5,1054.5C 837.63,1054.7 840.63,1055.37 843.5,1056.5C 843.5,1057.5 843.5,1058.5 843.5,1059.5C 838.963,1059.17 834.796,1057.83 831,1055.5C 825.866,1059.63 821.032,1064.13 816.5,1069C 854.508,1075.67 892.508,1082.01 930.5,1088C 929.748,1087.33 929.414,1086.5 929.5,1085.5C 929.833,1085.5 930.167,1085.5 930.5,1085.5C 930.953,1086.46 931.619,1087.29 932.5,1088C 939.016,1090.13 945.682,1091.8 952.5,1093C 954.976,1094.31 956.976,1096.14 958.5,1098.5C 896.837,1099.5 835.17,1099.83 773.5,1099.5C 771.167,1099.5 768.833,1099.5 766.5,1099.5C 783.122,1085.22 799.789,1070.89 816.5,1056.5C 817.5,991.503 817.833,926.503 817.5,861.5 Z"/></g>
<g><path style="opacity:1" fill="#9ab5e0" d="M 843.5,1059.5 C 862.172,1065.47 880.839,1071.64 899.5,1078C 901.598,1078.68 903.598,1078.51 905.5,1077.5C 913.319,1080.46 921.319,1083.13 929.5,1085.5C 929.414,1086.5 929.748,1087.33 930.5,1088C 892.508,1082.01 854.508,1075.67 816.5,1069C 821.032,1064.13 825.866,1059.63 831,1055.5C 834.796,1057.83 838.963,1059.17 843.5,1059.5 Z"/></g>
<g><path style="opacity:0.063" fill="#646d99" d="M 789.5,1057.5 C 789.577,1058.75 790.244,1059.58 791.5,1060C 754.179,1071.94 716.846,1083.77 679.5,1095.5C 679.5,1094.5 679.5,1093.5 679.5,1092.5C 715.99,1080.85 752.656,1069.18 789.5,1057.5 Z"/></g>
<g><path style="opacity:0.416" fill="#767faa" d="M 843.5,1056.5 C 862.481,1061.99 881.314,1067.99 900,1074.5C 902.637,1073.9 903.804,1072.23 903.5,1069.5C 903.833,1069.5 904.167,1069.5 904.5,1069.5C 904.401,1072.24 904.735,1074.9 905.5,1077.5C 903.598,1078.51 901.598,1078.68 899.5,1078C 880.839,1071.64 862.172,1065.47 843.5,1059.5C 843.5,1058.5 843.5,1057.5 843.5,1056.5 Z"/></g>
<g><path style="opacity:0.641" fill="#17153d" d="M 149.5,1076.5 C 148.884,1084.51 148.218,1092.51 147.5,1100.5C 139.5,1100.5 131.5,1100.5 123.5,1100.5C 123.5,1098.83 123.5,1097.17 123.5,1095.5C 125.6,1078.68 127.433,1061.68 129,1044.5C 128.52,1062.87 127.353,1081.2 125.5,1099.5C 132.5,1099.5 139.5,1099.5 146.5,1099.5C 146.794,1091.59 147.794,1083.93 149.5,1076.5 Z"/></g>
<g><path style="opacity:0.701" fill="#090b39" d="M 345.5,1092.5 C 345.5,1094.83 345.5,1097.17 345.5,1099.5C 394.833,1099.5 444.167,1099.5 493.5,1099.5C 443.598,1100.83 393.598,1100.83 343.5,1099.5C 343.5,1098.17 343.5,1096.83 343.5,1095.5C 344.167,1094.5 344.833,1093.5 345.5,1092.5 Z"/></g>
<g><path style="opacity:0.619" fill="#455183" d="M 679.5,1092.5 C 679.5,1093.5 679.5,1094.5 679.5,1095.5C 677.896,1096.29 677.229,1097.62 677.5,1099.5C 707.167,1099.5 736.833,1099.5 766.5,1099.5C 768.833,1099.5 771.167,1099.5 773.5,1099.5C 742.167,1100.17 710.833,1100.83 679.5,1101.5C 677.833,1101.5 676.167,1101.5 674.5,1101.5C 673.843,1097.14 675.51,1094.14 679.5,1092.5 Z"/></g>
<g><path style="opacity:0.602" fill="#65759f" d="M 930.5,1077.5 C 931.216,1079.56 931.883,1081.72 932.5,1084C 940.96,1086.65 949.293,1089.48 957.5,1092.5C 960.721,1094.61 962.055,1097.61 961.5,1101.5C 867.5,1101.5 773.5,1101.5 679.5,1101.5C 710.833,1100.83 742.167,1100.17 773.5,1099.5C 835.17,1099.83 896.837,1099.5 958.5,1098.5C 956.976,1096.14 954.976,1094.31 952.5,1093C 945.682,1091.8 939.016,1090.13 932.5,1088C 931.619,1087.29 930.953,1086.46 930.5,1085.5C 929.47,1082.77 929.47,1080.1 930.5,1077.5 Z"/></g>
<g><path style="opacity:0.293" fill="#4c496b" d="M 485.5,1057.5 C 486.725,1058.15 487.392,1059.32 487.5,1061C 489.402,1069.23 491.235,1077.39 493,1085.5C 493.83,1090.81 494.33,1096.14 494.5,1101.5C 443.822,1102.16 393.489,1101.5 343.5,1099.5C 393.598,1100.83 443.598,1100.83 493.5,1099.5C 490.405,1085.6 487.738,1071.6 485.5,1057.5 Z"/></g>
<g><path style="opacity:0.317" fill="#463f5d" d="M 640.5,1045.5 C 642.167,1045.5 643.833,1045.5 645.5,1045.5C 644.134,1046.92 642.8,1048.42 641.5,1050C 644.27,1063.63 647.27,1077.3 650.5,1091C 651.163,1094.47 651.496,1097.97 651.5,1101.5C 602.5,1101.5 553.5,1101.5 504.5,1101.5C 502.937,1094.58 504.937,1089.08 510.5,1085C 525.068,1079.93 539.735,1075.43 554.5,1071.5C 554.423,1072.75 553.756,1073.58 552.5,1074C 538.293,1077.78 524.293,1082.11 510.5,1087C 506.736,1090.6 505.403,1094.76 506.5,1099.5C 554.332,1100.66 602.332,1100.83 650.5,1100C 649.663,1098.99 649.33,1097.82 649.5,1096.5C 646.432,1080.24 642.765,1064.24 638.5,1048.5C 639.401,1047.71 640.068,1046.71 640.5,1045.5 Z"/></g>
<g><path style="opacity:0.707" fill="#00001c" d="M 649.5,1096.5 C 649.33,1097.82 649.663,1098.99 650.5,1100C 602.332,1100.83 554.332,1100.66 506.5,1099.5C 553.833,1099.5 601.167,1099.5 648.5,1099.5C 648.263,1098.21 648.596,1097.21 649.5,1096.5 Z"/></g>
</svg>
